<svg xmlns="http://www.w3.org/2000/svg" viewBox="0 0 241.69 253.86"><defs><style>.cls-1{fill:#f15861;}.cls-2{fill:#533660;}.cls-3{fill:#fff;}.cls-4{fill:none;stroke:#fff;stroke-linecap:round;stroke-miterlimit:10;stroke-width:1.42px;}</style></defs><title>Asset 13</title><g id="Layer_2" data-name="Layer 2"><g id="Layer_1-2" data-name="Layer 1"><path class="cls-1" d="M10.54,95C6.72,105.18,1.26,114.83.27,124.88c-1,10.65,1.12,21.45,3,31.57C5.19,166.77,7.33,177.5,12,186.88s11.74,17.55,18.76,25.51c6.78,7.69,16.3,12.58,25.07,18.72,8.28,5.8,26.31,4.73,36.22,8.44,14.56,5.46,19.46,14.45,34.13,14.31,9.76-.1,18.56-2.49,27.45-4.81,9.27-2.43,19.39-2.42,27.53-7.09s15.08-11.57,21.89-18.29a122.51,122.51,0,0,0,18.08-21.91,143.54,143.54,0,0,0,12.67-25.49c3.71-9.91,3.22-20.37,4.48-29.83,1.42-10.62,4.8-20.82,2.77-30.09-2.22-10.13-9.76-17.37-16.58-24.82-6.28-6.87-12.82-14.34-23.41-18-8.45-2.94-19.9-2-31.41-1.61-10.88.38-22,.73-31.13-2.71-11.65-4.36-18.19-10.5-24.21-16.23-6.62-6.3-12.74-11.31-25.41-12.41-12.24-1.07-23.75-.37-34.17,3.75A71.28,71.28,0,0,0,26.87,64.61C19.9,72.72,15,83.1,10.54,95Z" transform="translate(0)"/><path class="cls-2" d="M128,76.31c11.68-15.24,18.19-24.46,16.66-33.58s-7.3-26.62,11.16-35.45S193.78,5.07,196.19,1s7.87,25.45-7.17,36.36S155.25,42.52,150.88,46c-2.31,5-3.73,13.76-19.1,32.35" transform="translate(0)"/><path class="cls-3" d="M198.19,0A4.63,4.63,0,0,1,197,1.94a8.14,8.14,0,0,0-1.39,1.7c-.79,1.24-1.35,2.64-2.26,3.84a21.09,21.09,0,0,1-3.21,3.13c-1.12,1-2.1,2.08-3.28,3-.61.48-1.23.85-1.78,1.34s-1.13,1-1.76,1.4a6.46,6.46,0,0,1-2.09,1c-.74.21-1.48.32-2.21.46A29.76,29.76,0,0,0,174.8,19a15.07,15.07,0,0,1-2.22.45,12.8,12.8,0,0,0-2.07.59l-2.08.82a21.58,21.58,0,0,1-2.19.58,6.58,6.58,0,0,0-1.93.75,11.4,11.4,0,0,0-1.64,1.35l-3.16,3.11A22,22,0,0,0,156.68,30l-1.32,1.77-.66.88a5.77,5.77,0,0,0-.49.92c-.59,1.27-.85,2.84-1.79,4.13s-2,2.22-2.55,3.56-.51,2.87-1,4.3l-.1,0c.37-1.42.19-2.95.67-4.43s1.67-2.57,2.4-3.79a23.56,23.56,0,0,0,1.57-4.08,7.49,7.49,0,0,1,.53-1.06l.65-.92,1.29-1.85a22.26,22.26,0,0,1,2.9-3.46L162,22.84a12.39,12.39,0,0,1,1.83-1.42A7.13,7.13,0,0,1,166,20.6c.73-.17,1.45-.29,2.12-.51l2.08-.77a12.62,12.62,0,0,1,2.21-.59,13,13,0,0,0,2.15-.4,30.26,30.26,0,0,1,4.33-1.16A9.24,9.24,0,0,0,183,15.89c.6-.4,1.16-.87,1.74-1.34s1.24-.88,1.81-1.31c1.16-.88,2.17-2,3.33-2.94a20.05,20.05,0,0,0,3.23-3c.91-1.15,1.5-2.52,2.33-3.77s2.24-2,2.63-3.53Z" transform="translate(0)"/><path class="cls-3" d="M143.73,42.42l1.89,1.07c.64.36,1.25.76,1.86,1.16h0l0,0a1.14,1.14,0,0,0,.85.24,6.79,6.79,0,0,0,1.1-.18h.09a7.44,7.44,0,0,1,1.93.23,14,14,0,0,1,1.83.6v.1a8,8,0,0,1-1.94.16c-.62,0-1.23,0-1.85-.09h.09a7.54,7.54,0,0,1-1.27,0,2,2,0,0,1-1.32-.59l0,0c-1.1-.93-2.27-1.79-3.4-2.71Z" transform="translate(0)"/><path class="cls-3" d="M185.62,2.31c-.8.92-1.71,1.76-2.49,2.66a3.32,3.32,0,0,0-.72,3.14,28.27,28.27,0,0,0,1.21,3.35,20.89,20.89,0,0,1,1,3.53l-.09,0a22.14,22.14,0,0,1-1.81-3.21,11.74,11.74,0,0,1-1.06-3.57,4.82,4.82,0,0,1,.11-2,3.73,3.73,0,0,1,1-1.65c.91-.85,1.88-1.57,2.78-2.39Z" transform="translate(0)"/><path class="cls-3" d="M179.22,2c-1,1.15-2.25,2.15-3.2,3.31a7.09,7.09,0,0,0-1.47,4.11,12.16,12.16,0,0,0,.42,4.38,35.46,35.46,0,0,1,.94,4.54l-.09,0A35.09,35.09,0,0,1,174,14.1a9.43,9.43,0,0,1-.26-4.77,11.23,11.23,0,0,1,.6-2.31,6.94,6.94,0,0,1,1.29-2c1.11-1.14,2.39-2,3.51-3.05Z" transform="translate(0)"/><path class="cls-3" d="M169.53,2.62a44.11,44.11,0,0,0-2.12,4.24c-.75,1.37-1.73,2.71-1.71,4.15a13.12,13.12,0,0,0,.87,4.43c.5,1.32,1.55,2.68,2,4.24l-.09,0c-.47-.64-.95-1.25-1.44-1.87a9.87,9.87,0,0,1-1.36-2.05A10,10,0,0,1,164.9,11a5.27,5.27,0,0,1,.8-2.38c.4-.7.86-1.34,1.29-2a43.59,43.59,0,0,1,2.46-4Z" transform="translate(0)"/><path class="cls-3" d="M159.49,4.9c-1,1.59-1.37,3.53-2.48,5.12s-2,3.26-1.64,5a12.69,12.69,0,0,0,.86,2.59,14.63,14.63,0,0,0,1.19,2.45,9.5,9.5,0,0,0,.79,1.11c.28.39.57.77.83,1.16.54.77,1.1,1.52,1.69,2.26l-.06.08a14,14,0,0,1-2.17-1.9,25.6,25.6,0,0,1-1.92-2.16A10.08,10.08,0,0,1,155.31,18a12.86,12.86,0,0,1-.73-2.84,5.24,5.24,0,0,1,.51-2.95,18.33,18.33,0,0,1,1.5-2.46c1.19-1.47,1.69-3.34,2.81-4.91Z" transform="translate(0)"/><path class="cls-3" d="M152.07,9.32a12.79,12.79,0,0,1-2.33,2.43,4.6,4.6,0,0,0-.94,1.32c-.27.49-.53,1-.77,1.49a10.68,10.68,0,0,0-1.12,3,7.7,7.7,0,0,0,.39,3.17,8.94,8.94,0,0,0,1.41,2.87A8.66,8.66,0,0,0,151,25.82a15.66,15.66,0,0,1,2.59,2.25c.75.86,1.42,1.72,2.23,2.51l-.06.08a16.08,16.08,0,0,1-2.66-2.1,18.49,18.49,0,0,0-2.67-1.92,12.27,12.27,0,0,1-1.4-1.06,8.7,8.7,0,0,1-1.14-1.38A9.92,9.92,0,0,1,146.53,21a8.42,8.42,0,0,1-.26-3.47,11.3,11.3,0,0,1,1.32-3.19c.27-.49.56-1,.86-1.45a4.83,4.83,0,0,1,1.09-1.34A12.57,12.57,0,0,0,152,9.26Z" transform="translate(0)"/><path class="cls-3" d="M141.24,25.6c.58,1.27,1.53,2.25,2.23,3.51a15.49,15.49,0,0,0,2.2,3.42c.91,1.18,1.44,2.42,2.49,2.94s2.43,1.18,3.67,1.83l0,.1a13.59,13.59,0,0,1-4.09-1A3.77,3.77,0,0,1,146,34.8c-.38-.63-.65-1.26-1-1.79a16.57,16.57,0,0,1-2-3.69c-.52-1.21-1.41-2.36-1.86-3.68Z" transform="translate(0)"/><path class="cls-3" d="M142.51,36.09,144,38.16a17.72,17.72,0,0,0,1.48,2,6.8,6.8,0,0,0,1.83,1.37,8.69,8.69,0,0,0,2.26.79v.1a3.62,3.62,0,0,1-2.67,0,4.46,4.46,0,0,1-2-1.78,36.12,36.12,0,0,1-2.38-4.51Z" transform="translate(0)"/><path class="cls-3" d="M190.2,10.66a16.49,16.49,0,0,1,2.24,2.42,4.68,4.68,0,0,0,1.21,1,12.65,12.65,0,0,0,1.39.78,8.19,8.19,0,0,0,3,.72,21.48,21.48,0,0,0,3.2,0l0,.1a6.6,6.6,0,0,1-3.27.93,6.12,6.12,0,0,1-3.31-1,12.17,12.17,0,0,1-1.39-1,5.19,5.19,0,0,1-1.22-1.21,16.18,16.18,0,0,0-1.92-2.65Z" transform="translate(0)"/><path class="cls-3" d="M186.46,13.82l2.9,3a26.17,26.17,0,0,0,3.23,2.62c1.15.9,2,2.05,3.14,2.35a13.64,13.64,0,0,0,4,.4l0,.1a7.45,7.45,0,0,1-4.29.47,4,4,0,0,1-2-1.2c-.51-.53-.94-1.06-1.43-1.51A26.93,26.93,0,0,1,189,17.2l-2.61-3.31Z" transform="translate(0)"/><path class="cls-3" d="M181.66,16.57c.5.73,1.07,1.41,1.64,2.09s1.08,1.43,1.64,2.09,1.18,1.28,1.79,1.94,1.15,1.34,1.78,1.94a11.32,11.32,0,0,0,2,1.56,7.72,7.72,0,0,0,2.32.83c.42.1.82.16,1.3.27s.87.24,1.29.38a7.32,7.32,0,0,0,2.55.4l0,.1a5.45,5.45,0,0,1-2.72.18l-1.3-.19c-.4-.05-.88-.09-1.33-.16A6.55,6.55,0,0,1,190,27a12.14,12.14,0,0,1-2.06-1.84c-.62-.65-1.17-1.41-1.7-2.07s-1.16-1.34-1.69-2.07-1-1.5-1.49-2.21-1-1.44-1.48-2.21Z" transform="translate(0)"/><path class="cls-3" d="M173.79,18.76A18.42,18.42,0,0,0,176,21.23a6.62,6.62,0,0,1,1,1.38,10.67,10.67,0,0,1,.64,1.58,11.51,11.51,0,0,0,.56,1.53,6.57,6.57,0,0,0,.91,1.31c.7.83,1.5,1.59,2.28,2.41a11.48,11.48,0,0,0,2.54,2,28.28,28.28,0,0,0,2.8,1.67,13.9,13.9,0,0,0,3,1.14c1.06.25,2.18.36,3.28.62V35a27.28,27.28,0,0,1-3.38,0,12.59,12.59,0,0,1-3.32-.92,14.91,14.91,0,0,1-1.53-.81l-1.4-.94A12.63,12.63,0,0,1,180.82,30c-.72-.83-1.51-1.64-2.19-2.55A6.67,6.67,0,0,1,177.7,26a13.21,13.21,0,0,1-.52-1.62,6.63,6.63,0,0,0-1.4-2.91,19.62,19.62,0,0,1-2.08-2.62Z" transform="translate(0)"/><path class="cls-3" d="M166.49,20.81a30.17,30.17,0,0,1,1.09,3.42,13.77,13.77,0,0,0,1.53,3.19L170,29a11.39,11.39,0,0,0,.92,1.49c.7.92,1.63,1.65,2.44,2.62s1.31,2.1,2,2.92a4.86,4.86,0,0,0,1.26,1,17.24,17.24,0,0,0,1.53.85c1,.54,2.11,1.19,3.14,1.69a33.33,33.33,0,0,1,3.22,1.61l0,.09c-1.14-.38-2.29-.67-3.45-1a14.85,14.85,0,0,1-1.68-.71l-1.64-.73a8.5,8.5,0,0,1-3.1-2.13c-.81-1-1.24-2.17-1.91-3.06s-1.63-1.71-2.34-2.74a11.16,11.16,0,0,1-.9-1.6l-.86-1.57a14.27,14.27,0,0,1-1.39-3.35,29,29,0,0,0-.9-3.47Z" transform="translate(0)"/><path class="cls-3" d="M159.86,26.08c.29,1.11.43,2.26.64,3.38a24,24,0,0,0,.94,3.28c.36,1.08.84,2.11,1.28,3.17a7.3,7.3,0,0,0,1.73,2.75,11.88,11.88,0,0,0,2.92,1.53c.53.22,1.08.51,1.54.65a11.84,11.84,0,0,0,1.61.4c.56.14,1.13.29,1.7.49a5.08,5.08,0,0,1,1.6.87,17.69,17.69,0,0,0,2.73,2.07l0,.1a11.24,11.24,0,0,1-3.08-1.59,8,8,0,0,0-3.11-1,13.41,13.41,0,0,1-1.74-.39,17.69,17.69,0,0,1-1.62-.74,12.53,12.53,0,0,1-3-1.84,7.8,7.8,0,0,1-1.8-3.09c-.4-1.08-.84-2.15-1.15-3.27a22.68,22.68,0,0,1-.77-3.38c-.14-1.15-.21-2.29-.44-3.41Z" transform="translate(0)"/><path class="cls-3" d="M154.72,32.75c.55,1.43,1,2.92,1.62,4.31a8.24,8.24,0,0,0,2.47,3.64,31.26,31.26,0,0,0,3.72,2.57,35,35,0,0,1,3.87,2.56l-.05.09a37.74,37.74,0,0,1-4.3-1.78,15.47,15.47,0,0,1-3.76-2.83,6.31,6.31,0,0,1-1.5-1.9,16.87,16.87,0,0,1-.92-2.16c-.5-1.49-.82-3-1.25-4.47Z" transform="translate(0)"/><path class="cls-3" d="M151,38.86a18,18,0,0,0,1.36,2.52,11.32,11.32,0,0,0,.77,1.14,2.33,2.33,0,0,0,1.06.66c.84.27,1.86.42,2.73.75a14.53,14.53,0,0,1,2.63,1.23l0,.1a14,14,0,0,1-2.89-.37,15.56,15.56,0,0,1-2.75-1,3.18,3.18,0,0,1-1.26-1,10,10,0,0,1-.7-1.32,19.23,19.23,0,0,1-1-2.71Z" transform="translate(0)"/><path class="cls-4" d="M122.51,74a44.91,44.91,0,0,0,4.55,2.4,42.82,42.82,0,0,0,4.37,2.7,27.37,27.37,0,0,0,5,1.33,23.92,23.92,0,0,0,5.07.46,31.84,31.84,0,0,0,5.11,0" transform="translate(0)"/></g></g></svg>