<svg xmlns="http://www.w3.org/2000/svg" viewBox="0 0 469.2 378.93"><defs><style>.cls-1{fill:#ad936d;}.cls-2{fill:#fee700;}.cls-3{fill:#fff;}</style></defs><title>Asset 3</title><g id="Layer_2" data-name="Layer 2"><g id="Layer_1-2" data-name="Layer 1"><path class="cls-1" d="M37.12,268.66c-1.59-1.11-3-2.17-4.3-3.21a51.71,51.71,0,0,1-3.89-3.69c-2-2-3.61-3.24-3.82-3.9-.33-1-2.77-.57-6.26.8-2,.77-4.24,1.58-6.43,2.6s-4.38,2-6.26,2.95a11.62,11.62,0,0,0-4.41,4.28A11.61,11.61,0,0,0,0,274.36c0,1,0,1,0,2.07,0,2.65,1.73,4.89,3.48,6.88.89,1,3.86,5.12,5,6.65,2.86-.17,2.71-1.26,5.4-2.21s2.63-1.14,5.33-2.1,2.74-.83,5.39-1.9,2.75-.83,5.35-2,2.34-1.74,4.94-2.92,4.54.67,5.08-2.13c.8-4.21-1.23-4-2.84-7.94" transform="translate(0 0)"/><path class="cls-1" d="M394.69,54s-1.61-2.85-1.62-2.85a26.66,26.66,0,0,0-2.72-4.45,49.14,49.14,0,0,0-3.17-4.24c-1.15-1.23-2.4-2.47-3.71-3.78a43.35,43.35,0,0,1-3.88-4.55,55.64,55.64,0,0,1-3.54-4.85c-1-1.77-1.8-3.66-2.61-5.41a45,45,0,0,1-2.28-5.55,16.84,16.84,0,0,1-.72-5.91c.16-2.43,1.43-3.88,4.11-2.76a6.3,6.3,0,0,0,5.76-.23,15.6,15.6,0,0,0,4.08-2.94c1.3-1.3,2.29-2.86,3.37-3.91C389.39,1,390.87.68,392.19,2s3.27,1.28,5.22,1.27a21.73,21.73,0,0,0,5.35-.6A18,18,0,0,0,407,1.32c3.38-1.53,4.64-2.4,6.73,1.26.81,1.41,1.37,3.88,1.09,7.44a38.21,38.21,0,0,0-.53,5.71c.09,1.8.64,3.69.86,5.69s-.27,3.87,0,5.79,1.07,3.75,1.42,5.6,1.19,3.76,1.59,5.53c.47,2.07.88,3.95,1.36,5.55" transform="translate(0 0)"/><path class="cls-2" d="M445.16,249.7c-1.27,2.65-2.44,5.43-4,8.11s-3.36,4.92-5.07,7.49-3.27,5-5.11,7.45-3.66,4.72-5.61,7.09-3.36,5-5.41,7.29-4.61,3.9-6.73,6.1-4.08,4.4-6.27,6.52-4.51,4-6.77,6-4.37,4.12-6.69,6.09-4.64,3.83-7,5.72-4.46,4.08-6.88,5.9-5,3.4-7.45,5.15-5.09,3.25-7.6,4.92-5,3.33-7.59,4.93-5,3.36-7.62,4.87-5.1,3.28-7.75,4.71-5.56,2.43-8.25,3.77-5.31,2.93-8,4.17-5.47,2.65-8.23,3.79-5.67,2.21-8.48,3.22-5.76,2-8.6,2.84-5.8,1.92-8.68,2.65-5.95,1.35-8.87,1.91-5.86,1.18-8.85,1.69-6,.6-9,1.05-5.91,1-8.9,1.42-6,.36-9,.7-5.95.76-8.95,1.05-5.95.84-8.95,1.08-6,.4-9,.59-6,.55-9,.69-6-.1-9,0-6,.1-9,.14-6-.1-9-.1-6.05.28-9,.22-6.05-.17-9-.28-6-.38-9-.56-6-.77-9-1-6.1,0-9-.31c-3.07-.34-6-1.15-8.88-1.57s-6-.91-9-1.43-6.1-.48-9.07-1.09-5.78-2.1-8.72-2.8-6-1.26-8.87-2.05-6-1.3-8.86-2.2-5.72-2.18-8.54-3.19-5.65-2.35-8.41-3.48-5.73-2.21-8.41-3.49-5.5-2.75-8.08-4.19c-2.74-1.53-5.41-3-7.85-4.61a87.87,87.87,0,0,1-7.59-5.09,59,59,0,0,1-6.46-6.49c-1.84-2.1-3-4.93-4.66-7.6-1.5-2.46-3.5-4.78-4.83-7.49s-2.28-5.53-3.44-8.23S15,306.07,14,303.43c-1.21-3-2.72-5.62-3.78-8.07-1.5-3.46-2.56-6.23-3.82-7.84,3.55-3.75,6.4-3.86,9.5-3.07a3.27,3.27,0,0,0,2.86-.66l.2.11a14.87,14.87,0,0,0,1.64-3.26c0-1.55.64-2.38,2.54-3.38a6.18,6.18,0,0,1,3.47.38c2.47.93,2.4,1.11,4.87,2A1.72,1.72,0,0,0,33.66,278a8.87,8.87,0,0,0-.27-3.07c-.18-1.14-.16-2,1.27-2.47.94,0,2.15-.27,2.29-1.2.18-1.2,0-1.21.27-2.4.09.06,3.42,1.63,8.72,4,2.62,1.18,5.52,2.91,8.89,4.2,2.91,1.12,6.18,1.82,9.41,2.8s6.3,1.74,9.5,2.37a63.37,63.37,0,0,0,9.68,1.5c4.52.13,3.31-.09,9-.08,2.55,0,5.59,0,9,0,2.77,0,5.79,0,9-.08,2.85-.05,5.88.18,9,.09,2.9-.08,5.91-.44,9-.56,2.92-.11,6,0,9-.14s6-.26,9-.44,6-.32,9-.53,6-.44,9-.69,6-.73,9-1,6.05-.22,9-.55,6-.7,9-1.09,5.93-1.35,8.88-1.8,6.09-.44,9-1,5.9-1.57,8.79-2.19,5.57-1.72,8.47-2.51,5.59-1.63,8.44-2.56,5.61-1.62,8.41-2.67,5.49-2,8.24-3.19,5.55-1.94,8.25-3.19,5.41-2.33,8.06-3.66,4.87-3.39,7.48-4.8,5.28-2.59,7.84-4.07,5.21-2.76,7.73-4.31,5.13-2.93,7.59-4.55,4.62-3.71,7-5.39,5.06-3.08,7.43-4.82,4.3-4.1,6.62-5.9,4.93-3.3,7.19-5.16,4.25-4.13,6.45-6.06,4.34-4,6.48-6,4.24-4.11,6.3-6.18,4.37-4,6.34-6.15,4.26-4.17,6.13-6.38,3.38-4.92,5.14-7.21,3.47-4.82,5.1-7.2,3.51-4.81,5-7.29,2.91-5.2,4.14-7.78,2.48-5.09,3.58-7.72,2.63-5.05,3.61-7.74,1.45-5.48,2.3-8.22,1.34-5.47,2.06-8.26,1.9-5.34,2.49-8.16,1-5.55,1.45-8.41.77-5.57,1.14-8.44.66-5.58.93-8.47.47-5.6.66-8.5.56-5.59.6-8.06c.06-3-.7-5.62-.85-8-.18-3,0-5.67-.55-8A31.89,31.89,0,0,0,393,51c-.05-.15.2-.25.36-.22.92.15,3.41.75,4.17.21,2.48-2.52,2.21-2.79,4.73-5.26.61-.61.83-.37,1.53-.87a1.9,1.9,0,0,1,2.27.11c.92,1.16,1.2.92,2.11,2.09.77.44,3.72-.11,4-.94.54-1.43.52-1.44,1.06-2.87.69-1.83.48-1.91,1.18-3.74a1.62,1.62,0,0,1,2.17-.86,3,3,0,0,1,1.7,1.58,21.5,21.5,0,0,0,4.26,8.35c.69.69,2.76,3.47,6.1,7.27,1.8,2.06,3.73,4.61,6,7.36,1.86,2.29,3.8,4.8,5.81,7.48q2.74,3.65,5.54,7.68c1.75,2.55,3.8,5,5.49,7.72s2.94,5.58,4.44,8.37,3.07,5.54,4.35,8.4,2.5,5.85,3.49,8.79a71.41,71.41,0,0,1,2.63,9.09c.55,2.88,1.13,5.78,1.51,8.73s.33,5.87.53,8.83.72,5.86.76,8.83S469.1,153,469,156s-.23,5.89-.46,8.85-.94,5.82-1.3,8.76-.16,5.93-.63,8.84-1.06,5.82-1.64,8.71-1,5.85-1.65,8.71-1.54,5.72-2.31,8.56-1.9,5.62-2.77,8.42-1.51,5.75-2.47,8.51-2.32,5.47-3.38,8.2-2.59,5.34-3.74,8S446.41,247.07,445.16,249.7Z" transform="translate(0 0)"/><path class="cls-3" d="M402.72,46l1,4.29.49,2.14.38,2.17.75,4.35c.26,1.45.29,2.93.42,4.38.23,2.93,1.21,5.73,1.65,8.65.22,1.46.21,2.93.31,4.4a19.17,19.17,0,0,0,.74,4.31,29.77,29.77,0,0,1,1,4.3c.17,1.47.11,3,.17,4.41a13.48,13.48,0,0,0,.73,4.3,19,19,0,0,1,1,4.29l.37,4.39a38.26,38.26,0,0,1,.22,4.42,33.64,33.64,0,0,0,.09,4.38c.18,1.44.58,2.86.83,4.31a36.53,36.53,0,0,1,.34,4.41c.06,1.47.16,2.92.18,4.41s-.35,2.94-.5,4.39a14,14,0,0,0,.25,4.33,19.13,19.13,0,0,1,.43,4.41c0,1.47-.17,2.94-.27,4.4-.17,2.92-.41,5.86-.66,8.79-.53,5.86-1.47,11.66-2.54,17.45a49.83,49.83,0,0,1-3,8.31l-1.76,4a39.66,39.66,0,0,0-1.6,4.08,22,22,0,0,1-1.76,4.08c-.72,1.29-1.54,2.52-2.3,3.76-.39.62-.73,1.27-1.16,1.89s-.88,1.2-1.35,1.77a23.82,23.82,0,0,0-2.56,3.51c-.72,1.27-1.3,2.62-2,3.91-.36.65-.81,1.26-1.21,1.86l-1.17,1.86a35.81,35.81,0,0,1-2.51,3.65c-.93,1.15-1.92,2.25-2.87,3.35l-1.43,1.69c-.49.55-1,1.09-1.52,1.61-1,1.06-2.08,2.08-3,3.2s-1.68,2.38-2.6,3.55a17.13,17.13,0,0,1-3.18,3.13,27.4,27.4,0,0,0-3.28,2.87c-1,1.05-1.88,2.22-2.88,3.32-2,2.23-4.48,3.87-6.64,5.83s-4.4,3.91-6.76,5.67l-3.47,2.72c-1.18.9-2.39,1.73-3.58,2.59-2.4,1.64-4.49,3.73-6.9,5.45-1.15.88-2.21,1.89-3.36,2.83a16.8,16.8,0,0,1-3.78,2.4,30.49,30.49,0,0,0-3.84,2l-3.77,2.3c-.62.38-1.27.76-1.86,1.15a21.25,21.25,0,0,0-1.72,1.32,25.19,25.19,0,0,1-3.58,2.66c-2.56,1.5-5.29,2.6-7.62,4.34a32.52,32.52,0,0,1-3.72,2.42l-3.93,2-7.84,4.06c-1.37.65-2.8,1.05-4.16,1.54a19.44,19.44,0,0,0-2,.81l-2,.91c-5.36,2.42-10.72,4.84-16.14,7.12a75.6,75.6,0,0,1-8.16,3.39c-1.41.44-2.81.85-4.18,1.34l-4.16,1.45c-1.38.48-2.79,1-4.22,1.37s-2.84.77-4.21,1.21-2.66,1.09-4,1.67a24.34,24.34,0,0,1-4.28,1.33c-1.44.33-2.88.61-4.27,1s-2.72,1-4.12,1.45a16.87,16.87,0,0,1-4.38,1c-1.48.17-2.94.24-4.32.54-2.81.6-5.66,1.62-8.67,1.81-1.48.13-2.93.19-4.35.43s-2.86.53-4.32.79c-2.94.45-5.86.77-8.76,1.15-1.43.17-2.87.46-4.35.66a33.42,33.42,0,0,1-4.46.24c-1.49,0-2.89,0-4.4.09s-3-.1-4.41-.12a13.54,13.54,0,0,0-2.13.09c-.69.09-1.4.25-2.12.41a22.14,22.14,0,0,1-2.21.41,15.69,15.69,0,0,1-2.26.05c-2.93-.06-5.9,0-8.84-.27l-2.18-.16a21.84,21.84,0,0,1-2.24-.19c-1.49-.23-2.9-.61-4.32-.76a20.11,20.11,0,0,0-4.3.14,18.64,18.64,0,0,1-2.25.1,18.22,18.22,0,0,1-2.25-.25c-1.46-.23-2.89-.55-4.32-.73s-2.88-.15-4.36-.18a40.5,40.5,0,0,1-4.43-.4l-4.38-.53a30.24,30.24,0,0,1-4.31-1.11,15.23,15.23,0,0,0-4.25-.68,29,29,0,0,1-4.43-.35c-1.47-.29-2.88-.75-4.28-1.15-.71-.2-1.4-.36-2.13-.52s-1.44-.36-2.14-.57c-1.42-.43-2.8-.89-4.23-1.19l-4.3-1c-.72-.17-1.43-.29-2.15-.51s-1.41-.46-2.11-.71a38.86,38.86,0,0,0-4.15-1.39c-1.41-.37-2.84-.7-4.27-1.1s-2.8-.9-4.2-1.35-2.8-.91-4.17-1.43l-8.27-3.06c-1.38-.52-2.76-1-4.11-1.59s-2.74-1.05-4.08-1.66-2.65-1.29-4-1.93a34.66,34.66,0,0,1-3.9-2.07c-1.25-.79-2.42-1.67-3.66-2.45a31.92,31.92,0,0,0-4-1.9c-2.8-1.13-4.69-3.55-6.89-5.45a0,0,0,0,1,0-.07,0,0,0,0,1,.07,0c2.22,1.89,4.13,4.28,6.89,5.36a30.32,30.32,0,0,1,4,1.88c1.26.76,2.45,1.63,3.69,2.41a34,34,0,0,0,3.89,2c1.33.63,2.65,1.28,4,1.88s2.71,1.09,4.08,1.62,2.75,1,4.13,1.55l8.27,3c1.37.52,2.78.93,4.17,1.4s2.78,1,4.18,1.33,2.84.71,4.27,1.08A39.84,39.84,0,0,1,89.51,304a25.15,25.15,0,0,0,4.2,1.18l4.3.94c1.45.3,2.87.76,4.26,1.17.7.21,1.41.4,2.11.56s1.45.32,2.16.51c1.42.4,2.82.84,4.23,1.11a28,28,0,0,0,4.33.32,16.25,16.25,0,0,1,4.43.69,31.32,31.32,0,0,0,4.21,1.07l4.37.5a37.73,37.73,0,0,0,4.35.37,41.68,41.68,0,0,1,4.44.17c1.48.17,2.92.49,4.36.71a14.38,14.38,0,0,0,4.28.12,20.79,20.79,0,0,1,4.48-.17c1.51.16,2.94.54,4.36.74a18.51,18.51,0,0,0,2.15.18l2.2.14c2.91.27,5.83.19,8.77.23a13.7,13.7,0,0,0,2.14-.05,20.65,20.65,0,0,0,2.12-.39c.71-.15,1.44-.32,2.2-.42a14.54,14.54,0,0,1,2.27-.1c1.49,0,3,.13,4.39.12s3-.09,4.41-.08a32.79,32.79,0,0,0,4.33-.24c1.43-.19,2.87-.48,4.36-.66,2.92-.38,5.84-.7,8.71-1.15,1.43-.24,2.87-.55,4.34-.78s3-.31,4.41-.44c2.88-.17,5.64-1.16,8.55-1.8,1.49-.31,3-.38,4.42-.54a16.29,16.29,0,0,0,4.16-1c1.36-.49,2.73-1.07,4.19-1.48s2.88-.67,4.3-1a22.21,22.21,0,0,0,4.13-1.27c1.33-.55,2.67-1.21,4.11-1.68s2.85-.81,4.25-1.21,2.77-.87,4.17-1.34l4.16-1.43c1.4-.51,2.82-.91,4.21-1.35a74.74,74.74,0,0,0,8.1-3.34c5.42-2.26,10.77-4.65,16.12-7.06l2-.9a22,22,0,0,1,2.08-.84,42,42,0,0,0,4.09-1.5l7.82-4,3.92-2a31.15,31.15,0,0,0,3.65-2.37c2.41-1.78,5.19-2.9,7.69-4.36a25,25,0,0,0,3.48-2.58c.57-.47,1.16-.94,1.78-1.36s1.26-.77,1.89-1.16l3.75-2.28a33,33,0,0,1,3.93-2.09,15.9,15.9,0,0,0,3.65-2.29c1.12-.92,2.19-1.94,3.38-2.84,2.38-1.69,4.48-3.77,6.93-5.45,1.2-.86,2.41-1.68,3.56-2.57l3.47-2.7c2.36-1.75,4.52-3.74,6.75-5.63s4.66-3.63,6.6-5.77c1-1.08,1.88-2.24,2.9-3.33a28.83,28.83,0,0,1,3.35-2.92,16.69,16.69,0,0,0,3.09-3c.89-1.14,1.67-2.39,2.61-3.55a44.28,44.28,0,0,1,3-3.23c1.05-1,2-2.14,2.92-3.27s1.95-2.2,2.86-3.33a33.36,33.36,0,0,0,2.49-3.6l1.18-1.86c.42-.63.84-1.2,1.19-1.83.73-1.26,1.32-2.61,2-3.9a23.93,23.93,0,0,1,2.62-3.59c.47-.56.92-1.13,1.33-1.72s.75-1.25,1.15-1.87c.77-1.25,1.58-2.47,2.3-3.74a21.11,21.11,0,0,0,1.73-4,40.47,40.47,0,0,1,1.62-4.12l1.77-4a50.12,50.12,0,0,0,3-8.23c1.08-5.76,2-11.56,2.58-17.4.26-2.92.51-5.83.69-8.77.1-1.47.23-2.93.27-4.39a18.2,18.2,0,0,0-.41-4.34,14.3,14.3,0,0,1-.23-4.43c.16-1.47.47-2.91.51-4.36s-.12-2.92-.17-4.39a37.3,37.3,0,0,0-.32-4.37c-.25-1.43-.65-2.85-.83-4.33a32.64,32.64,0,0,1-.07-4.42,37.78,37.78,0,0,0-.21-4.38L411.11,98a19,19,0,0,0-1-4.25,19.88,19.88,0,0,1-.54-2.15,20.59,20.59,0,0,1-.19-2.21c-.05-1.47,0-2.94-.15-4.39a30.37,30.37,0,0,0-1-4.28,19.41,19.41,0,0,1-.74-4.35c-.09-1.47-.08-2.94-.29-4.39-.43-2.89-1.41-5.7-1.62-8.65-.14-1.47-.16-2.94-.41-4.38l-.74-4.34-.37-2.17-.49-2.15-1-4.29a0,0,0,0,1,0-.06S402.72,46,402.72,46Z" transform="translate(0 0)"/><path class="cls-3" d="M413.92,43.14a15.24,15.24,0,0,1,1.19,2.35c.36.8.74,1.59,1.17,2.35a51.86,51.86,0,0,0,3,4.32c1,1.42,1.9,3,2.87,4.41a50.25,50.25,0,0,1,2.67,4.53l2.47,4.64c.79,1.58,1.33,3.26,2,4.87a27.31,27.31,0,0,0,2.55,4.57,16.81,16.81,0,0,1,1.23,2.34L434,80c.62,1.64,1.36,3.23,1.89,4.92s.88,3.4,1.47,5,1.29,3.25,1.87,4.91,1,3.37,1.47,5.06,1,3.37,1.31,5.1a41.48,41.48,0,0,0,1.23,5.09,29.63,29.63,0,0,1,1.63,5c.32,1.74.45,3.49.68,5.22s.45,3.48.69,5.21l.34,2.61c.14.86.32,1.71.51,2.57s.38,1.71.52,2.58.2,1.75.29,2.62l.45,5.25c.11,1.78-.18,3.53-.2,5.26s.26,3.48.42,5.22c.45,3.53-.29,7.05-.17,10.52,0,1.75.09,3.52,0,5.27s.14,3.48.07,5.26a25.14,25.14,0,0,1-1,5.2,34,34,0,0,0-.87,5.15,25.27,25.27,0,0,1-1,5.2c-.56,1.68-1.28,3.27-1.71,5s-.71,3.42-1.19,5.13c-.24.86-.53,1.67-.73,2.52l-.61,2.55a19.26,19.26,0,0,1-.82,2.54,22.89,22.89,0,0,1-1.18,2.38,29.85,29.85,0,0,0-2.28,4.69,50.09,50.09,0,0,1-2,4.88c-.83,1.59-1.89,3-2.8,4.48A93.58,93.58,0,0,1,420.88,240c-.95,1.42-1.59,3.07-2.54,4.59a18.92,18.92,0,0,1-1.61,2.11l-1.66,2c-1.11,1.35-2.21,2.75-3.42,4s-2.37,2.56-3.49,3.92-2.26,2.68-3.43,4-2.62,2.37-3.87,3.57c-2.43,2.49-4.81,5.11-7.25,7.61L390,275.62c-1.21,1.26-2.38,2.58-3.7,3.77s-2.79,2.17-4.13,3.28a36.52,36.52,0,0,0-3.68,3.68c-2.44,2.65-5.55,4.39-8.06,6.79-1.29,1.17-2.55,2.4-4,3.48s-3,1.9-4.39,2.9l-4.18,3.19c-1.4,1.07-2.77,2.11-4.13,3.22-.68.56-1.38,1.1-2.09,1.63s-1.39,1-2.07,1.58a42.78,42.78,0,0,1-4.19,3.23l-4.32,3-4.5,2.75c-3,1.93-6.22,3.29-9.1,5.25a37.67,37.67,0,0,1-4.56,2.66l-4.72,2.35c-1.63.81-3.36,1.22-5,1.85a26.68,26.68,0,0,0-4.51,2.54,17.86,17.86,0,0,1-2.37,1.26,25.23,25.23,0,0,1-2.54.85,20.9,20.9,0,0,0-4.84,1.78,36.3,36.3,0,0,1-4.76,2.35l-4.92,1.87c-1.65.6-3.34,1.09-5,1.64-.83.28-1.68.54-2.49.82s-1.62.62-2.43.94a30.85,30.85,0,0,1-5.07,1.62c-1.72.4-3.43.73-5.09,1.22s-3.34,1-5.07,1.46L259,349.82a38.42,38.42,0,0,1-5.21.93,46.78,46.78,0,0,0-5.14.89,94.8,94.8,0,0,1-10.43,1.58c-1.71.22-3.43.6-5.18.86a47.44,47.44,0,0,1-5.29.4c-.88,0-1.73.09-2.61.16s-1.77.09-2.65.11c-1.77,0-3.47.09-5.24.19l-5.26.25-5.26.15a48.81,48.81,0,0,1-5.29-.16c-1.72-.1-3.48-.05-5.24-.07-3.51,0-7-.15-10.52-.27l-5.26-.25a37.15,37.15,0,0,0-5.19.34,21.84,21.84,0,0,1-2.69,0l-2.63-.13-2.63-.14-2.62-.24-2.62-.25-1.31-.13c-.45-.05-.91-.12-1.35-.21-1.77-.36-3.41-1-5.07-1.17s-3.46-.14-5.23-.25c-.91-.05-1.76-.19-2.61-.2s-1.73,0-2.62,0a18.71,18.71,0,0,1-2.68-.16,22.11,22.11,0,0,1-2.62-.55c-.85-.22-1.69-.44-2.53-.61s-1.69-.26-2.56-.36c-1.74-.18-3.5-.29-5.26-.6s-3.45-.83-5.13-1.23-3.44-.65-5.16-1-3.41-.7-5.14-.85c-.87-.09-1.75-.18-2.64-.33a19.77,19.77,0,0,1-2.57-.67l-5.05-1.51c-1.72-.52-3.3-1.33-4.91-2l-4.93-1.79a50.22,50.22,0,0,1-4.92-1.94A49.17,49.17,0,0,0,83,336.5c-1.64-.6-3.33-1.1-5-1.85l-4.77-2.24a39.27,39.27,0,0,1-4.63-2.54c-1.49-.92-3-1.76-4.56-2.59s-3.08-1.72-4.56-2.64-3-1.78-4.48-2.78-3-1.79-4.46-2.76a22.94,22.94,0,0,1-4-3.46c-2.46-2.44-5.29-4.6-7.82-7L31.4,301c-2.49-2.49-4.32-5.53-6.63-8.15a30.84,30.84,0,0,1-3.16-4.21l-2.82-4.44a0,0,0,0,1,0-.07s.06,0,.07,0h0l2.86,4.41a29,29,0,0,0,3.18,4.16c2.34,2.63,4.19,5.64,6.69,8.1l7.36,7.5c2.55,2.41,5.34,4.49,7.88,7a23,23,0,0,0,3.95,3.37c1.46.95,3,1.76,4.49,2.75s3,1.85,4.46,2.75,3,1.8,4.55,2.61,3.1,1.67,4.6,2.58a39.25,39.25,0,0,0,4.59,2.5l4.77,2.2c1.57.73,3.24,1.22,4.9,1.81A50,50,0,0,1,88,338a45.44,45.44,0,0,0,4.87,1.89l5,1.78c1.65.65,3.22,1.44,4.86,1.93l5,1.48a17.78,17.78,0,0,0,2.51.64c.85.15,1.71.23,2.59.32,1.76.15,3.52.56,5.23.84s3.43.59,5.17,1,3.4.92,5.1,1.2,3.44.4,5.19.57c.87.09,1.76.18,2.65.36s1.73.4,2.58.61a22.55,22.55,0,0,0,2.52.52,18.14,18.14,0,0,0,2.56.14c.87,0,1.75,0,2.65,0s1.79.15,2.63.19c1.73.1,3.49.06,5.27.23a51.17,51.17,0,0,1,5.18,1.17c.41.08.82.14,1.24.18l1.31.12,2.62.25,2.61.24,2.62.13,2.63.14a20,20,0,0,0,2.56,0,39.44,39.44,0,0,1,5.29-.33l5.25.25c3.5.13,7,.31,10.5.29,1.75,0,3.5,0,5.28.07a45.75,45.75,0,0,0,5.22.17l5.24-.14,5.25-.25c1.74-.09,3.53-.17,5.27-.18.87,0,1.74,0,2.6-.1s1.77-.12,2.64-.16a49.11,49.11,0,0,0,5.19-.39c1.72-.25,3.43-.62,5.2-.86a92.08,92.08,0,0,0,10.36-1.55,50.63,50.63,0,0,1,5.21-.9,35.68,35.68,0,0,0,5.14-.91l5.1-1.22c1.68-.41,3.34-1,5-1.45s3.44-.83,5.13-1.22a28.76,28.76,0,0,0,4.95-1.57c.81-.32,1.63-.65,2.47-.95s1.67-.54,2.5-.82c1.66-.55,3.35-1,5-1.63l4.91-1.86a35.42,35.42,0,0,0,4.67-2.3,21.51,21.51,0,0,1,5-1.84,22,22,0,0,0,2.45-.82,16.29,16.29,0,0,0,2.26-1.19,27.16,27.16,0,0,1,4.64-2.6c1.67-.66,3.38-1.06,4.9-1.82a79.17,79.17,0,0,0,9.21-5c2.94-2,6.21-3.34,9.12-5.24l4.49-2.73,4.31-3a43.35,43.35,0,0,0,4.14-3.18c.68-.56,1.4-1.11,2.11-1.61s1.38-1.05,2.06-1.59c1.35-1.11,2.78-2.19,4.16-3.24l4.2-3.19c1.45-1,3-1.86,4.38-2.89s2.63-2.25,3.94-3.43c2.57-2.44,5.7-4.19,8-6.73a37.83,37.83,0,0,1,3.75-3.74c1.37-1.12,2.83-2.1,4.12-3.25s2.44-2.46,3.66-3.73,2.46-2.51,3.67-3.78c2.46-2.5,4.79-5.08,7.27-7.6,1.28-1.23,2.68-2.3,3.86-3.55l3.41-4c1.12-1.34,2.31-2.66,3.52-3.93s2.28-2.62,3.39-4l1.67-2a20.49,20.49,0,0,0,1.58-2.06c.92-1.45,1.55-3.1,2.55-4.6a92.23,92.23,0,0,0,11.44-17.58c.93-1.51,2-2.91,2.79-4.44a48,48,0,0,0,2-4.83c1.16-3.38,3.6-6.1,4.28-9.54l.62-2.55c.21-.86.51-1.71.74-2.53.47-1.68.76-3.41,1.2-5.12s1.18-3.33,1.73-5a24.19,24.19,0,0,0,1-5.11,35.55,35.55,0,0,1,.89-5.2,24.52,24.52,0,0,0,1-5.11c.08-1.73-.13-3.48-.05-5.26s.07-3.48,0-5.24c-.11-3.54.64-7,.19-10.49-.14-1.74-.41-3.48-.4-5.26s.31-3.51.21-5.24l-.44-5.23c-.08-.87-.12-1.75-.27-2.6s-.33-1.72-.52-2.57-.37-1.72-.5-2.59l-.34-2.61c-.23-1.74-.43-3.48-.68-5.22s-.35-3.49-.66-5.21a29.37,29.37,0,0,0-1.61-5,41.59,41.59,0,0,1-1.23-5.13c-.33-1.72-.81-3.4-1.29-5.08s-.89-3.4-1.46-5-1.26-3.26-1.85-4.92-1-3.38-1.47-5-1.25-3.27-1.87-4.9l-1-2.45a17.53,17.53,0,0,0-1.21-2.31,27.59,27.59,0,0,1-2.55-4.61c-.68-1.62-1.21-3.29-2-4.85l-2.46-4.65A50.15,50.15,0,0,0,422,56.64c-1-1.46-1.82-3-2.85-4.41a52,52,0,0,1-3-4.34c-.43-.76-.81-1.56-1.17-2.36a14.93,14.93,0,0,0-1.17-2.33,0,0,0,0,1,0-.07A0,0,0,0,1,413.92,43.14Z" transform="translate(0 0)"/><path class="cls-3" d="M380.12,9.7a30.49,30.49,0,0,0-.18,3.57,5.55,5.55,0,0,0,1,3.26,7.46,7.46,0,0,0,1.21,1.24,10.87,10.87,0,0,1,1.38,1.2,23.68,23.68,0,0,1,2.24,2.88c.69,1,1.26,2.06,1.84,3.11s1.14,2.12,1.68,3.19a50.33,50.33,0,0,1,2.78,6.66,0,0,0,0,1,0,.06s0,0-.06,0c-1.24-2.07-2.38-4.15-3.57-6.23-.58-1.05-1.13-2.1-1.66-3.18s-1-2.15-1.66-3.16a22.54,22.54,0,0,0-2-2.87,9.86,9.86,0,0,0-1.28-1.21,8.67,8.67,0,0,1-1.24-1.39,6,6,0,0,1-.9-3.54A30.76,30.76,0,0,1,380,9.68a.07.07,0,0,1,.06,0A.05.05,0,0,1,380.12,9.7Z" transform="translate(0 0)"/><path class="cls-3" d="M403,2.19a8,8,0,0,1,1.39,1.21A5.89,5.89,0,0,1,405.28,5a24.07,24.07,0,0,1,1.43,3.4,6.37,6.37,0,0,1,.14,1.9,10,10,0,0,1-.39,1.83,14.41,14.41,0,0,0-.31,3.54,15.06,15.06,0,0,0,.43,3.51c.29,1.15.7,2.29,1,3.5a17.2,17.2,0,0,1,.46,3.71,16.86,16.86,0,0,0,.23,3.61s0,0,0,0a0,0,0,0,1-.05,0,13,13,0,0,1-.58-1.76c-.13-.61-.18-1.24-.25-1.83a20.41,20.41,0,0,0-.73-3.49c-.33-1.14-.75-2.3-1-3.53a16.33,16.33,0,0,1-.26-3.74,15.6,15.6,0,0,1,.48-3.71,8.93,8.93,0,0,0,.45-1.72,5.59,5.59,0,0,0-.06-1.73A23.56,23.56,0,0,0,405,5.14a5.44,5.44,0,0,0-.77-1.61,7.7,7.7,0,0,0-1.29-1.26.05.05,0,0,1,.06-.08Z" transform="translate(0 0)"/></g></g></svg>