<svg xmlns="http://www.w3.org/2000/svg" viewBox="0 0 487.71 395.79"><defs><style>.cls-1{fill:#00838a;}.cls-2{fill:#f36c34;}.cls-3{fill:none;stroke:#fff;stroke-linecap:round;stroke-miterlimit:10;stroke-width:1.71px;}</style></defs><title>Asset 8</title><g id="Layer_2" data-name="Layer 2"><g id="Layer_1-2" data-name="Layer 1"><path class="cls-1" d="M90.56,30.65c-.31-3.93-1.22-3.24-1.78-7.74-.29-2.39-.45-5.11-.92-7.83s-.77-5.39-1.42-7.75c-.89-3.27-2.1-5.7-3.37-6.87-1.56-1.44-3.33.62-4.26,4.61-.5,2.14-.16,4.89-.51,7.5S78,17.71,77.79,20c-.47,4.66-.5,7.93-.6,6.9-.14-1.39-2-3.64-4-6.37-1.3-1.81-3.46-3.27-5.16-5.26s-2-4.87-3.67-6.62c-1.84-1.92-3.92-3.5-5.53-5C55.6.73,52.23-.57,52,.58c-.25,1.49-.13,4.43-1,7.73-.6,2.34-2,4.79-2.35,7.45a30.49,30.49,0,0,0-.32,7.88c.33,2.29,2.47,4.47,4.43,6.52a73.21,73.21,0,0,0,5.34,5.71c3.36,2.75,5.87,4.34,2,4.34-1.69,0-3.85-1.22-6.32-2.47a61.25,61.25,0,0,1-6-3.15c-1.83-1.17-3.08-3.36-4.94-4.67s-4.23-1.89-6-3.14c-2-1.4-4.19-2.17-5.89-3.26-2.43-1.58-4-3.76-5.45-4.14-1.73-.45-4.07.5-6.55.92-2,.35-4.46,0-6.58.67S8.16,22.51,6.3,23.33C3.73,24.46,2.07,26.39,1,27.2S-.19,30.15.44,33a16.91,16.91,0,0,0,2.16,6A14,14,0,0,0,7,43.64c1.8,1,4.11,2.1,6.49,1.85,2.17-.23,4.82-1,7.83-.76,2.5.21,5.08,1.12,7.78,1.57s5.43.18,7.93.76c2.81.66,5.4,1.56,7.62,2.28,4.17,1.35,7.14,2.81,7,3.79s-3.21,1.79-6.85,1.61c-2.09-.1-4.46-.89-6.85-1a53.82,53.82,0,0,0-6.83.46c-3,.25-5.73.12-6.57,1.64a45.58,45.58,0,0,1-3.17,5.77c-1.21,1.7-2.53,3.55-3.78,5.38s-3.47,3.35-4.39,5.09c-1.46,2.75-.71,4.85.29,6A12,12,0,0,0,19,82a25.41,25.41,0,0,0,7,1.14c2.56,0,5.36,0,7.14-1.2,1.37-.91,3.33-2.78,6.19-3.85,2.16-.81,4.86-.67,7.25-1.35s4.75-2.27,6.91-2.62c3.86-.63,7.11-.26,7.12,1.23"/><path class="cls-2" d="M462.79,355.06c30.87,20.43,29.19,30.87,15.76,38.1-4.27,2.3-19.32,4.93-39.85-.92-11.64-3.31-24.15-10.57-38.08-15.82-12.37-4.66-25.2-10.06-37.79-15.88s-25-12.24-36.36-18.9c-12.82-7.51-22.68-17.32-31.85-25.4-10.8-9.52-18.8-19.64-27-28.62a334.72,334.72,0,0,1-24.91-30.3c-8.46-11.73-16.7-21.69-23-32.08-7.42-12.18-14.24-23.43-21.49-33.55-6.51-9.09-21.55-16.49-34.74-26.24-12.18-9-23-21.49-34.62-26.54-8.16-3.55-27.07-4.93-41.46-14.63C75,116,67.68,101.69,63.63,88.38,60.12,76.81,56.91,61.58,68.06,46c13.31-18.63,29.63-16.47,42.53-14.4,16.29,2.61,31.17,12.25,41.93,19A278.23,278.23,0,0,1,191.8,80.86c11.55,10.68,22.11,24.73,33.72,36.65,13,13.37,28.23,23.62,36.54,34.15,8.49,10.77,14.43,22.17,20.84,32.1,7.36,11.39,10.55,24.09,16.52,34.47C306,229.7,316,238.32,322.71,248.69c6.84,10.54,10.87,23.39,19.86,33,11.05,11.77,24.26,21.27,36.62,30,13.4,9.46,26.75,18.41,39.6,25.57C434.11,345.74,451.61,347.66,462.79,355.06Z"/><path class="cls-3" d="M162.25,56.57c-4.42-.15-4-1.29-8.89-.2A33.51,33.51,0,0,0,145.19,60a20.63,20.63,0,0,0-6.31,6"/><path class="cls-3" d="M202.14,91.3c-4.1.13-3.48.42-8.15,1-2.49.29-5.48-.26-8.28.32s-5.16,2.51-7.56,3.44a12.92,12.92,0,0,0-6.27,4.48"/><path class="cls-3" d="M177.41,69c-4.4.92-4-.61-9.08.86-2.58.74-5.35,2.37-8.38,3.47-2.78,1-5.27,3-7.95,4.28-2.84,1.38-6.17,1.88-8.37,3.56-2.73,2.08-5.14,4.71-5.94,7.22"/><path class="cls-3" d="M223.24,109.32c-4,0-3.29.58-8,.85-2.4.14-5.14.1-8,.43-2.63.31-5.44.1-8,.64-2.8.59-5,2.45-7.27,3.4-3,1.26-5,2.27-5.93,4.33"/><path class="cls-3" d="M239.47,129.19c-4,.3-3.71-.81-8-.12a69.61,69.61,0,0,0-7.72,2.21c-3.22.92-5.93,2.17-6.9,3.72"/><path class="cls-3" d="M257.66,152.32c-4.52.13-4.08.48-9,1.12a63.72,63.72,0,0,0-9,1.44c-3.43,1-6.57,2.7-8,4.54"/><path class="cls-3" d="M278.13,178.45a58.89,58.89,0,0,0-8.08.79,59.75,59.75,0,0,0-7.87,1.77c-3.41.92-6.21,1.63-6.82,3.44"/><path class="cls-3" d="M297.85,205.38c-4.34.44-4.25.76-8.56,1.55-3.58.65-7.18,1.13-8.28,2.22"/><path class="cls-3" d="M309.67,225c-5,.5-4.41,1.42-9.9,2.36a98.81,98.81,0,0,0-9.83,2.21c-4.2,1.17-7.12,2.86-8.31,4.65"/><path class="cls-3" d="M318.49,246c-4.31-.14-4.22,0-8.6.92a15.91,15.91,0,0,0-7.7,3.7"/><path class="cls-3" d="M339.24,271.74c-4.7-.14-4.32-.56-9.34.2-3,.47-6.5.79-9.2,2.14a9.56,9.56,0,0,0-5.29,7.36"/><path class="cls-3" d="M358.05,288.79c-4.09.54-3.6,1.14-7.89,2.49-2.53.8-5.52,1.34-7.78,2.8a10.72,10.72,0,0,0-5,6.55"/><path class="cls-3" d="M381.16,309.38c-5.19-.16-5.25-.6-10.25.93-3.38,1-7,2.71-8.45,5.86"/><path class="cls-3" d="M404.54,322.7c-5.17.07-6.24-.1-8.05,5.33"/><path class="cls-3" d="M431.11,338.07a75.63,75.63,0,0,0-7.58,3.52c-3.42,1.65-6.82,3.71-6.82,4.87"/><path class="cls-3" d="M451.12,353.54A48.42,48.42,0,0,0,441,355.8c-4.17,1.25-8.28,3.45-8.56,5.68"/><path class="cls-3" d="M467.32,366.2c-4-.26-3.35-.08-6.84,3.63a19,19,0,0,0-4.3,6.72"/></g></g></svg>