<svg xmlns="http://www.w3.org/2000/svg" viewBox="0 0 405.83 305.68"><defs><style>.cls-1{isolation:isolate;}.cls-2{mix-blend-mode:multiply;}.cls-3{fill:#fee700;}.cls-4{fill:#fff;}</style></defs><title>Asset 2</title><g class="cls-1"><g id="Layer_2" data-name="Layer 2"><g id="Layer_1-2" data-name="Layer 1"><g class="cls-2"><path class="cls-3" d="M182.84,12.24c36.78-11,46.42-13.8,81.5-11.5C314.46,4,360.5,27.08,382.13,69.1c2.37,4.62,14.8,9.43,16.71,14.24,2.06,5.16-5.24,9.88-3.75,15.21,1.89,6.76,9.45,8.29,10.69,14.79.75,4-6.28,13.28-5.78,17.14,6.36,49.56-22.06,93-70.7,128.87-21.66,16-48.46,21.91-76.88,29.86C202,303.32,166.32,313.88,124.81,297c-37.42-15.21-74.09-26.4-91.11-59.66-1.32-2.59-4.53-3.56-7.19-4.74C16.54,228.18,1,218.82.12,214.41c-1.8-8.87,17.37-29.66,16.28-35.1C1,102.4,126.79,28.93,182.84,12.24Z"/><path class="cls-3" d="M23.59,182.41c4.34,1.11,4.09.34,7.81,4.36a27.16,27.16,0,0,1,4.74,7.74c1,2.4,1.22,5.45,1.79,8.82"/><path class="cls-4" d="M23.59,182.41c.64-.21,1.25-.35,1.86-.49a8.75,8.75,0,0,1,1.92-.25,5.55,5.55,0,0,1,2.31.51,12.19,12.19,0,0,1,1.85,1c.53.36,1,.71,1.49,1.09a11.73,11.73,0,0,1,1.44,1.28,16.71,16.71,0,0,1,2.36,3.08,18.52,18.52,0,0,1,1.61,3.4,13.32,13.32,0,0,1,.87,3.9,17.8,17.8,0,0,1-1.37,7.36,30.41,30.41,0,0,1-3.61-6.14c-.24-.45-.48-.86-.7-1.24l-.18-.26c-.07-.1-.13-.22-.2-.33l-.41-.68L31.24,192c-.53-.86-1-1.72-1.55-2.52s-1.21-1.76-1.73-2.64l-.74-1.2a3.06,3.06,0,0,0-.76-.94c-.38-.34-.9-.66-1.4-1A10.87,10.87,0,0,1,23.59,182.41Z"/></g></g></g></g></svg>