<svg xmlns="http://www.w3.org/2000/svg" viewBox="0 0 303.82 368.15"><defs><style>.cls-1{fill:#00838a;}.cls-2{fill:#f36c34;}.cls-3{fill:none;stroke:#fff;stroke-linecap:round;stroke-miterlimit:10;stroke-width:0.71px;}.cls-4{fill:#fff;}</style></defs><title>Asset 7</title><g id="Layer_2" data-name="Layer 2"><g id="Layer_1-2" data-name="Layer 1"><path class="cls-1" d="M103.72,17.28c-3.75,3.35-6.58,8.93-8.33,15a91.17,91.17,0,0,0-2.68,16.87c-.51,5.92.24,11.84.32,17,.17,9.75-2.93,9.27.8,16.89.85,1.74,1.45,1.73,3.38,1.92,7.4.7,6.41-.46,14.81-2,4.46-.84,9.22-3.14,14.22-4.49s10-2.34,14.2-4.21c5.47-2.42,10.61-4.75,12.56-8.15s2.79-9.21,5.15-15.21c1.84-4.69,4.76-9.47,6.56-14.58,1.86-5.29,3-10.73,4.52-15.32,2.89-8.77,8.73-7.94,5.88-15.39-2.7-7-6.44-1.78-15.25-3.43C155.55,1.36,150.59-.24,145,0a61.3,61.3,0,0,0-15,2.22,65.59,65.59,0,0,0-13.84,6.26A74.31,74.31,0,0,0,103.72,17.28Z"/><path class="cls-2" d="M17.28,298.13c6.27,9.73,15.4,19.29,26.39,28.24a235.46,235.46,0,0,0,32,22.3c12.6,7.15,25.36,11.6,35.89,14.91a95.45,95.45,0,0,0,39.42,4c13.09-1.38,26.21-3.94,39.08-9.28,12.17-5.05,25.34-9.62,36.93-17.09,10.47-6.76,20.19-15.83,30.11-24.1s18.37-18.32,25.85-28.21c8-10.6,16.72-21,19.37-33.27s1.57-26.1-1.31-39.32a177.58,177.58,0,0,0-12.69-37.08c-5.59-11.9-14.12-22.45-20.9-33-5.52-8.56-12-16.64-18-24.83-6.21-8.46-11-18-18.34-24.71-7.7-7-16.46-13.31-26.09-16.81-10.45-3.81-22.35-2.39-34-2.7-11.11-.29-22.56-1.31-34,1-11,2.29-22.69,4.27-33.24,8.62S83.08,97.56,73.7,103.61c-10.05,6.48-19.62,13.09-28.61,19.6a133.71,133.71,0,0,0-25.28,23.62C12.64,155.62,9.12,166,6.44,178a227.09,227.09,0,0,0-5.25,40.8c-.52,13.72-2.41,28,0,41.44C3.81,274.47,10.14,287.06,17.28,298.13Z"/><path class="cls-3" d="M78.3,133.9a20.09,20.09,0,0,0,2.41,3.71c.86,1.13,1.19,2.86,2.32,3.92s2.7,1.28,4,1.77,2.7,1.58,4.59,1.37a26.42,26.42,0,0,0,4.78-1.26,27,27,0,0,0,4.77-1.48,7.16,7.16,0,0,0,3.44-3.66c.42-1.49,0-3.71.29-5.69.41-2.94.93-2.72,1.18-5.53"/><path class="cls-1" d="M96.65,84.63c-1.58,8-7.64,6.94-6.69,15,2,17.08,12.07,28.55,6,32.47S85.79,134,83.43,127c-5.63-16.67-3-17.45-8.7-34.08-2.93.21-5.26.73-5.71-2.78-1-7.94,1.43-12.58,6.54-13.44s1.12,11.14,9.65,15.66c5.54,2.93,4.25-5.26,9.16-9.15C95.93,82,97,82.73,96.65,84.63Z"/><path class="cls-1" d="M75.34,92.66a3.65,3.65,0,0,0,3.37-1.85"/><path class="cls-4" d="M94.89,81.6c6.42-15.29,5.66-12.95,14.08-30,3.57-7.26,10.38-13.69,18-20.06a146.09,146.09,0,0,1,22.12-15.67c8.62-4.8,17.13-9,24.59-11.59-14.75,7.63-19.33,8.1-30.49,13.16-6.5,2.94-13.26,8-19.38,13.35a163.67,163.67,0,0,0-16.46,16.75c-4.5,5.32-6.47,17-11.51,34.41"/></g></g></svg>