<svg xmlns="http://www.w3.org/2000/svg" viewBox="0 0 617.45 496.89"><defs><style>.cls-1{fill:#fee700;}.cls-2{fill:#fff;}</style></defs><title>Asset 10</title><g id="Layer_2" data-name="Layer 2"><g id="Layer_1-2" data-name="Layer 1"><path class="cls-1" d="M610.58,201.48c7.34,37.66,9.23,47.54,3.55,82.23-8.12,49.56-35.53,93.15-79.45,110.61-4.83,1.92-10.82,13.82-15.79,15.26-5.34,1.54-9.33-6.18-14.78-5.21-6.91,1.22-9.16,8.6-15.75,9.2-4,.37-12.62-7.53-16.51-7.41-49.93,1.53-90.38-31-121.41-82.85-13.81-23.1-17.12-50.35-22.28-79.41C319,192.33,312,155.81,332.77,116.13,351.54,80.37,366.23,44.94,401,31.24c2.71-1.07,4-4.17,5.42-6.71C411.76,15,422.58.49,427.06,0c9-.93,27.83,20.16,33.35,19.61C538.45,11.78,599.4,144.08,610.58,201.48Z"/><path class="cls-1" d="M456.64,26.49c-1.53,4.21-.74,4-5.1,7.35a27.27,27.27,0,0,1-8.17,4c-2.49.78-5.54.69-8.94.92"/><path class="cls-2" d="M456.63,26.49c.15.66.23,1.28.31,1.89a9.48,9.48,0,0,1,.07,1.94,5.78,5.78,0,0,1-.74,2.26,13.19,13.19,0,0,1-1.21,1.74c-.41.49-.81,1-1.23,1.38a14.17,14.17,0,0,1-1.42,1.3,16.57,16.57,0,0,1-3.29,2.06,19.2,19.2,0,0,1-3.54,1.27,13.36,13.36,0,0,1-4,.48,17.54,17.54,0,0,1-7.19-2.08,30.73,30.73,0,0,1,6.45-3c.47-.19.91-.38,1.3-.57l.28-.15.35-.17.71-.35,2.79-1.32c.92-.44,1.82-.86,2.67-1.3s1.87-1,2.79-1.47l1.27-.61a3.35,3.35,0,0,0,1-.66c.37-.35.74-.84,1.18-1.3A10.5,10.5,0,0,1,456.63,26.49Z"/><path class="cls-1" d="M182.84,203.45c36.78-10.95,46.42-13.79,81.5-11.5,50.12,3.28,96.16,26.34,117.79,68.36,2.37,4.62,14.8,9.43,16.71,14.24,2.06,5.17-5.24,9.89-3.75,15.21,1.89,6.76,9.45,8.29,10.69,14.79.75,4-6.28,13.28-5.78,17.15,6.36,49.55-22.06,92.95-70.7,128.86-21.66,16-48.46,21.92-76.88,29.87-50.43,14.1-86.1,24.67-127.61,7.79C87.39,473,50.72,461.82,33.7,428.55c-1.32-2.59-4.53-3.56-7.19-4.74C16.54,419.39,1,410,.12,405.62c-1.8-8.86,17.37-29.65,16.28-35.1C1,293.62,126.79,220.14,182.84,203.45Z"/><path class="cls-1" d="M23.59,373.62c4.34,1.11,4.09.34,7.81,4.36a27.37,27.37,0,0,1,4.74,7.75c1,2.39,1.22,5.44,1.79,8.81"/><path class="cls-2" d="M23.59,373.62a17.59,17.59,0,0,1,1.86-.48,8.73,8.73,0,0,1,1.92-.26,5.57,5.57,0,0,1,2.31.52,13.12,13.12,0,0,1,1.85,1c.53.36,1,.72,1.49,1.09a13.67,13.67,0,0,1,1.44,1.28,16.71,16.71,0,0,1,2.36,3.08,19.15,19.15,0,0,1,1.61,3.4,13.4,13.4,0,0,1,.87,3.9,17.77,17.77,0,0,1-1.37,7.36,29.88,29.88,0,0,1-3.61-6.14c-.24-.45-.48-.86-.7-1.23l-.18-.27c-.07-.1-.13-.22-.2-.33l-.41-.68-1.59-2.64c-.53-.87-1-1.72-1.55-2.53S28.48,379,28,378.09l-.74-1.21a3.18,3.18,0,0,0-.76-.94c-.38-.33-.9-.66-1.4-1.05A10.87,10.87,0,0,1,23.59,373.62Z"/></g></g></svg>