<svg xmlns="http://www.w3.org/2000/svg" viewBox="0 0 565.51 483.75"><defs><style>.cls-1{fill:#f36c34;}.cls-2{fill:#00838a;}.cls-3,.cls-5{fill:none;stroke:#fff;stroke-linecap:round;stroke-miterlimit:10;}.cls-3{stroke-width:0.99px;}.cls-4{fill:#fff;}.cls-5{stroke-width:0.82px;}</style></defs><title>Asset 1</title><g id="Layer_2" data-name="Layer 2"><g id="Layer_1-2" data-name="Layer 1"><path class="cls-1" d="M.2,201.66c-1,13.64,2.2,29.63,6.16,45.91,3.6,14.81,7,30.66,13,44.58,6.78,15.74,16.49,29.06,24.05,39.7,9.48,13.35,20.72,24.79,34.38,33.06C91.12,373,106.58,377.82,122.51,382c15.08,3.94,30.79,8.59,47,9.83a377.7,377.7,0,0,0,45.63.81,202.3,202.3,0,0,0,45-7.76c15.12-4.26,28-12.31,39.25-22s19-22.41,25.77-36.92a202.68,202.68,0,0,0,14.38-43.19c3.24-15.22,6.22-30.5,7.34-45.26.91-12,.6-24.22.79-36.24.19-12.4.43-24.44-1.7-36-2.23-12.13-3.56-24.89-10.13-35.08-7.13-11-18.62-19.32-29.43-28-10.25-8.21-20.54-17.79-33-23.7-12-5.74-25.89-8.1-38.94-11.54a221.74,221.74,0,0,0-39.75-6.52c-14.1-1.07-27.74-2.77-40.85-3.06-14.3-.32-27.55,2.05-40.34,5.14-13,3.15-25.3,7.53-36.41,16.93s-22.41,22.07-33.51,35.61a226.06,226.06,0,0,0-26.47,40.83C9.44,171.19,1.38,186.12.2,201.66Z"/><path class="cls-2" d="M285,.14c-5.93.49-11.63,4-17.63,8.43a103.89,103.89,0,0,0-14.8,13.35c-4.7,5.2-8.43,11-12,16-6.81,9.3-9.6,6.26-11.53,16.11-.44,2.24-.17,2.44,1.52,4,6.47,6,6.46,3.86,15.49,8.37,4.81,2.4,10.33,5,16,7.33s11.18,5.09,16.51,6.36c6.89,1.62,13.64,1.92,17.91.1a142.64,142.64,0,0,0,16.74-9c5.09-3.1,10.66-6.53,16-10.07,5.53-3.65,9.87-8.91,14.57-12.15,9-6.2,12.21-1.48,14.85-10.54,2.5-8.56-2.77-5.82-9.89-13.67-3.49-3.84-6.68-9.45-12.16-13.2C332,8.45,326.17,6.31,320.15,4.08,315,2.15,309,2.07,302.61,1.31,297.13.64,291.36-.38,285,.14Z"/><path class="cls-3" d="M177.55,95.31c-2,1.8-1.34,1.81-.51,5.22a12.8,12.8,0,0,0,1.93,4.92c.86,1.22,1.41,3.19,2.86,4.66s4,1.09,5.41,1.69a10.18,10.18,0,0,0,5,1.06,15.56,15.56,0,0,0,5.28-1c2.67-1.35,2.38-1.41,4.29-3.29"/><path class="cls-2" d="M230,57.35c-7.2,6.4-10.69,2-15.58,10.27-10.31,17.53-10.52,35.43-19,34.78s-10.14-6-7.36-14.27c6.6-19.72,8.78-18.86,15.26-38.62-2.9-1.9-6-3.41-3.92-7,4.71-8.22,10.74-9.9,16.17-7.07s-6.29,10.6-1.48,21c3.13,6.72,7.43-1.71,14.84-1.88C231.26,54.43,231.75,55.83,230,57.35Z"/><path class="cls-2" d="M204.29,49.68a4,4,0,0,0,4.32.4"/><path class="cls-4" d="M231,54c17-9.82,13.79-9.65,33.93-19.74,8.56-4.29,20-5.24,31.67-5.81,10.46-.5,21.6-.55,32.17.95,11.55,1.63,22.58,3.83,31.45,6.72-19.35-3.34-24.31-4.66-38.43-7.88-8.23-1.87-17.84-.84-27.45-.15s-19.53,1-27.45,2.76-18.48,10.62-35.65,23.38"/><path class="cls-1" d="M278.94,375.19c2.8,10.89,9.56,22.47,16.95,34.08,6.73,10.56,13.58,22,21.93,31.22,9.43,10.45,20.52,18.24,29.21,24.51,10.91,7.87,22.68,13.79,35.49,16.61,12.5,2.74,25.8,2.41,39.3,1.43,12.77-.93,26.22-1.47,39.18-4.81a312.46,312.46,0,0,0,35.7-11.45,166.35,166.35,0,0,0,32.91-17.95c10.64-7.32,18.52-17,24.71-27.48s8.87-22.47,10.26-35.54a166.68,166.68,0,0,0-.25-37.4c-1.51-12.69-3.25-25.37-6.28-37.14-2.47-9.58-5.95-19-9-28.39-3.14-9.7-6.14-19.13-10.85-27.54-5-8.85-9.37-18.42-17.17-24.6-8.47-6.71-19.6-10.1-30.3-14-10.15-3.67-20.68-8.4-31.9-9.71-10.89-1.27-22.28.56-33.34,1.34a181.32,181.32,0,0,0-32.64,5.46c-11.25,2.9-22.31,5.19-32.59,8.43-11.2,3.54-20.88,8.9-30,14.69-9.3,5.9-17.68,12.55-23.83,22.81s-11.58,23.09-16.62,36.57A184.49,184.49,0,0,0,280,335.12C278.06,349.05,275.74,362.8,278.94,375.19Z"/><path class="cls-2" d="M447,143.05c-4.48,1.95-8,6.13-11.53,11.21a85.27,85.27,0,0,0-7.95,14.32c-2.28,5.29-3.68,10.8-5.18,15.59-2.83,9-5.77,7.44-4.66,15.62.25,1.86.56,1.93,2.28,2.69,6.61,2.92,6,1.29,14.26,2.41,4.37.59,9.37,1.17,14.39,1.45s10,.94,14.52.51c5.78-.56,11.07-2.1,13.91-4.64a117,117,0,0,0,10.64-11.4c3.13-3.76,6.55-7.91,9.77-12.07,3.34-4.31,5.43-9.46,8.23-13.23,5.35-7.2,9.14-4.42,8.79-12.16-.32-7.33-3.75-3.85-11.36-8.07-3.73-2.06-7.75-5.44-13-6.91-4.35-1.22-9.41-1.41-14.68-1.55-4.55-.12-9.23,1.3-14.39,2.39C456.61,140.15,451.86,140.94,447,143.05Z"/><path class="cls-5" d="M388.7,245.52c-1,1.92-.55,1.77,1,4.2a10.66,10.66,0,0,0,2.8,3.31c1,.72,1.94,2.11,3.46,2.87s3.37-.21,4.66-.12a8.43,8.43,0,0,0,4.17-.5,12.75,12.75,0,0,0,3.84-2.16c1.72-1.76,1.48-1.73,2.47-3.7"/><path class="cls-2" d="M419.47,202.1c-3.91,6.88-7.79,4.36-9.39,12.11-3.38,16.37,1.2,30.34-5.6,32.1s-9.47-2-9.51-9.16c-.09-17.08,1.84-17,1.65-34.08-2.76-.7-5.57-1.06-4.91-4.43,1.48-7.63,5.73-10.54,10.7-9.77s-2.09,9.91,4.4,16.68c4.21,4.4,5.33-3.29,11-5.39C419.64,199.5,420.4,200.46,419.47,202.1Z"/><path class="cls-2" d="M397.42,203a3.3,3.3,0,0,0,3.46-.84"/><path class="cls-4" d="M419.27,199.19c10.61-12.13,8.25-11.08,21.24-24.26,5.53-5.6,14.07-9.43,23-13a141.15,141.15,0,0,1,25.28-7.73,157.62,157.62,0,0,1,26.25-3.07c-15.93,2.52-20.15,2.74-32,4-6.9.72-14.13,4-21.42,7.06s-14.88,6-20.58,9.51-11.61,13.11-21.58,27.59"/></g></g></svg>