<svg xmlns="http://www.w3.org/2000/svg" viewBox="0 0 182.99 236.32"><defs><style>.cls-1{isolation:isolate;}.cls-2{mix-blend-mode:multiply;}.cls-3{fill:#00838a;}.cls-4{fill:#8dd4ab;}.cls-5{fill:#ad936d;}.cls-6{fill:none;stroke:#ad936d;stroke-miterlimit:10;stroke-width:0.59px;}</style></defs><title>Asset 4</title><g class="cls-1"><g id="Layer_2" data-name="Layer 2"><g id="Layer_1-2" data-name="Layer 1"><g class="cls-2"><path class="cls-3" d="M88.75,235.59c-17.76-3.53-31.09-8.55-42.59-15C32.54,213.05,23.71,204.31,17,194.3,8.78,181.91,1.35,169.92.23,157.65c-1.62-17.73,5.88-32.36,9.31-39.08,7.3-14.33,18.64-44.55,24.88-58,11.42-24.7,16.48-31.22,30-48.8,2.73-3.53,5.15-6.91,9.38-8.33C79.12,1.61,85.06,0,91.43,0,105.08.07,116,7.44,126.08,18.46c8.36,9.15,18.21,19.53,24.67,32.71,5.87,12,7.39,26.51,12.11,39.31,5,13.51,12.68,25.66,16.84,37.41,4.69,13.22,4,27.54.19,40.28-3.75,12.56-11.9,24.12-20.86,34.28S139.27,222,128,227.8C114.67,234.66,100.39,237.89,88.75,235.59Z"/></g><path class="cls-4" d="M96.18,230.32c-13.11,1.81-26.75.48-39-5.51-11.65-5.72-22.65-14.6-31.49-24.56C16.6,190,10.13,177.49,6.09,165.71a48.53,48.53,0,0,1,2.22-37.86c5.77-12,11.49-27.36,18.85-42.44,6.94-14.22,12.12-29.8,18.93-42.49C56.69,23.19,67,7.49,72.72,4.37c6.54-3.59,10.39-1.21,20,1.78,14.84,5.49,24.34,15.13,29.84,30.37,4.31,11.95,7.38,26.43,12.33,42.2,4,12.72,6.65,27.31,14.35,41.4,8.39,15.33,12.87,31.08,10.07,45.67-3,15.7-13.85,29.23-24,40.55C123.32,219.63,109,228.56,96.18,230.32Z"/><g class="cls-2"><path class="cls-5" d="M102,147.64c0,20.82-9.87,43.86-29.83,43.86S37.5,168.86,37.5,148c0-10.19.44-22.29,7.6-31,7.47-9.1,18.79-12.32,29-12.32C94.05,104.72,102,126.81,102,147.64Z"/></g><g class="cls-2"><path class="cls-6" d="M133.24,32.77c1.55,6,2.09,10.39,5.23,10"/><path class="cls-6" d="M142.18,52.71c-2.54-1-4.05-1.32-3.65,2.61"/><path class="cls-6" d="M142.84,63.3c4.14,0,7.36-.54,6.58,2.6"/><path class="cls-6" d="M136.59,64.8c.45,5.2.54,8.94,4.08,8.55"/><path class="cls-6" d="M146.21,75.77c3.68-.45,6.78-.74,6,2.8"/><path class="cls-6" d="M133.17,48.85c-2.19,2.93-3.47,5.29.07,6.86"/><path class="cls-6" d="M122.49,22.42c.63,3.48.55,4.21,4.08,5"/><path class="cls-6" d="M154,90c3.76,2,6.51,3.21,4.94,6.35"/><path class="cls-6" d="M129.33,35.37c-1.81,2.41-2.7,3.3-.34,5.65"/><path class="cls-6" d="M147.29,93.29c3.11,5.32,5.91,8.51,5.05,11.26"/><path class="cls-6" d="M139.3,86.09c2.53-.6,3.46-.69,5,.15"/><path class="cls-6" d="M164.47,105.86c-2.77.83-3.88,1.12-3.88,3.67"/><path class="cls-6" d="M151.78,111.5c3.9,2.56,6.94,4,4.75,6.94"/><path class="cls-6" d="M167.94,118.63c3.1.49,4.6.5,4.41,3.05"/><path class="cls-6" d="M164.1,122.39c-3.74,2.64-4.79,4.08-2,8.79"/><path class="cls-6" d="M170.32,128.86c3.19.77,5.06,1.18,2.5,4.72"/><path class="cls-6" d="M165.69,138.68c-2.66,2.26-4.22,3.33-3.44,5.88"/><path class="cls-6" d="M171.76,154.43c2.19-3.53,3.9-5.93,1.78-7.7"/><path class="cls-6" d="M165.34,151.53c-3.42,4.22-4,5.72-1,10"/><path class="cls-6" d="M173.66,161.65c2.34,3.93,3.28,6,.31,8.41"/><path class="cls-6" d="M162.63,170.1c1.29-4.22,2.57-7.36,5.12-5.78"/><path class="cls-6" d="M164,177.37c3.13-1,5.24-1.65,5.24,1.69"/><path class="cls-6" d="M156.07,186.62c-1-3.9-1.46-7.31.81-7.51"/><path class="cls-6" d="M163.44,185.46c2.59,4.14,4.09,7.7-.34,9.07"/><path class="cls-6" d="M154,194.15c-3.35.82-3.39.78-4.35,5.1"/><path class="cls-6" d="M136.93,212.75c2.61-.62,4.12-.88,3.53-3.23"/><path class="cls-6" d="M145.9,204.42c2-.92,3.78-1.59,3.8.18"/><path class="cls-6" d="M155.78,199.24c-1.7-1.32-2-1.46.69-3.42"/><path class="cls-6" d="M134,215.57c-3.14.2-3,.23-4.49,4"/></g></g></g></g></svg>