<svg xmlns="http://www.w3.org/2000/svg" viewBox="0 0 372.5 425.67"><defs><style>.cls-1{fill:#f15861;}.cls-2{fill:#7f3a60;}.cls-3{fill:#fff;}.cls-4{fill:none;stroke:#fff;stroke-width:2.16px;}</style></defs><title>Asset 16</title><g id="Layer_2" data-name="Layer 2"><g id="Layer_1-2" data-name="Layer 1"><path class="cls-1" d="M2,277.76C5.23,294.38,15.46,308,22.37,322.14,29.7,337.08,37,351.16,47.78,363c11,12.08,24.76,20,38.62,28.62,13.67,8.46,26.56,18.52,42.37,23.31,15.24,4.62,31.25,9.76,47.87,10.71,15.69.9,38.44-23.64,54.58-26.83,23.72-4.68,37.38,4.83,56.66-7.35,12.82-8.11,27.58-13.19,37.43-23.53,10.27-10.78,15.07-25.49,22-38.31S358.54,303.43,362,289c3.38-13.94,10.39-27.8,10.47-42.89.06-14.21-1.84-29.2-4.79-44.12-3.19-16.14-11.87-29.85-17.93-43.39-6.82-15.21-11.38-31.17-21.63-41.76-11.23-11.58-26.43-17.5-41.53-21.78-13.93-3.94-29-4.23-46-.46-13.59,3-28.06,12.31-43,22.25-14.08,9.39-29.08,16.8-44,19.75-19,3.74-32.46,3.36-45.11.71C94.62,134.38,83.63,134.13,66,143c-17,8.59-32.86,16.76-43.27,30.73C12.17,187.88,6.2,204.87,3.26,223.61.67,240-1.87,258.42,2,277.76Z" transform="translate(0 0)"/><path class="cls-2" d="M146.07,156.31c3-29.71,5.2-48.4-4.27-59.21s-34-28.91-16.84-55.67S175.52,8.31,175.41,1s31.08,27.57,20.11,54.28c-11.05,26.87-40.69,34.14-43.64,42.28,1,8.48,7.66,21.45,2.53,58.6" transform="translate(0 0)"/><path class="cls-3" d="M175.84.8c.21,1.12.53,2.2.65,3.34s0,2.27,0,3.4c0,2.24.61,4.49.28,6.78a8.47,8.47,0,0,1-1.23,3.18,24.38,24.38,0,0,0-1.6,3c-.89,2.06-.59,4.42-1.35,6.63A26.57,26.57,0,0,1,169,32.85c-.35.46-.65.91-1,1.37a10,10,0,0,1-1.22,1.22c-.86.76-1.78,1.42-2.63,2.15-1.71,1.43-2.92,3.38-4.55,5a29.8,29.8,0,0,1-2.61,2.2A33.44,33.44,0,0,0,154.4,47a17.45,17.45,0,0,0-2.12,2.57c-.65.92-1.25,1.87-1.8,2.84a27.07,27.07,0,0,0-1.5,3,17,17,0,0,0-.84,3.21c-.21,1.1-.39,2.23-.66,3.35s-.56,2.18-.8,3.29a56.92,56.92,0,0,0-1,6.66c-.13,1.12-.25,2.24-.32,3.36s-.08,2.25-.12,3.38a47.46,47.46,0,0,0,.13,6.75c.25,2.23.82,4.43,1.08,6.69s.25,4.53.69,6.75a0,0,0,0,1,0,0,.05.05,0,0,1,0,0c-.52-2.21-.58-4.49-.94-6.72s-.91-4.41-1.21-6.68a47.06,47.06,0,0,1-.26-6.81c0-1.13,0-2.26.05-3.4s.15-2.28.27-3.4a57.31,57.31,0,0,1,1-6.75c.25-1.11.53-2.21.81-3.3s.43-2.19.65-3.31a17.87,17.87,0,0,1,.91-3.33,27.54,27.54,0,0,1,1.57-3.06,32,32,0,0,1,1.86-2.87A17.38,17.38,0,0,1,154,46.62c.82-.8,1.7-1.53,2.59-2.24a30,30,0,0,0,2.58-2.15c1.59-1.55,2.83-3.51,4.61-5,.87-.74,1.8-1.4,2.65-2.12A11.85,11.85,0,0,0,167.61,34c.35-.41.68-.89,1-1.34A26.33,26.33,0,0,0,172.28,27c.75-2.09.48-4.48,1.41-6.62a27.83,27.83,0,0,1,1.65-3,8,8,0,0,0,1.24-3.08c.35-2.24-.24-4.48-.21-6.76,0-1.13.09-2.26,0-3.38S176,1.93,175.77.82c0,0,0,0,0,0A0,0,0,0,1,175.84.8Z" transform="translate(0 0)"/><path class="cls-3" d="M143,97.83a3.69,3.69,0,0,1,1.45.36,3.85,3.85,0,0,0,1.35.38h0a3.47,3.47,0,0,0,3-1.07h0c.54-.43,1.06-.81,1.57-1.28a7.18,7.18,0,0,1,1.8-1.13,0,0,0,0,1,.05,0,.06.06,0,0,1,0,0c-.5.51-1,1-1.41,1.51a7.37,7.37,0,0,1-1.58,1.42l0,0a5.47,5.47,0,0,1-1.67.93,3.26,3.26,0,0,1-1.93.07h0a3.86,3.86,0,0,1-1.41-.6A3.52,3.52,0,0,0,143,97.9s0,0,0,0S142.94,97.83,143,97.83Z" transform="translate(0 0)"/><path class="cls-3" d="M160.73,12.11a18.36,18.36,0,0,0,.08,5.39,16.88,16.88,0,0,0,.63,2.59,5.66,5.66,0,0,0,1.48,2.12c1.3,1.21,2.86,2.15,4.24,3.33s2.79,2.33,4.1,3.6a0,0,0,0,1,0,.05,0,0,0,0,1,0,0c-1.55-1-3-2-4.47-3.09a40.78,40.78,0,0,1-4.22-3.5A6.13,6.13,0,0,1,161,20.25a16.17,16.17,0,0,1-.55-2.7,18.78,18.78,0,0,1,.2-5.45s0,0,0,0S160.73,12.09,160.73,12.11Z" transform="translate(0 0)"/><path class="cls-3" d="M152.53,16.61a15.17,15.17,0,0,0-.38,3.49,22.3,22.3,0,0,1-.12,3.55c-.4,2.28-1,4.7,0,6.8a15.64,15.64,0,0,0,3.83,5.68c1.78,1.53,3.56,3,5.27,4.68a0,0,0,0,1,0,0s0,0,0,0c-2-1.32-3.82-2.77-5.7-4.21A12.33,12.33,0,0,1,153,33.9a20.78,20.78,0,0,1-1.55-3.23,7.25,7.25,0,0,1-.43-3.59c.13-1.2.4-2.35.64-3.5a23.49,23.49,0,0,0,.26-3.49,15.35,15.35,0,0,1,.53-3.5s0,0,0,0S152.54,16.59,152.53,16.61Z" transform="translate(0 0)"/><path class="cls-3" d="M140.59,24.91a16.07,16.07,0,0,0,.31,3.66,23.48,23.48,0,0,1,.54,3.68c0,1.25-.13,2.48-.2,3.7a6.79,6.79,0,0,0,.47,3.49A8.69,8.69,0,0,0,144.13,42l3,2.22c1.93,1.61,3.6,3.37,5.59,4.84,0,0,0,0,0,0s0,0-.05,0a43.06,43.06,0,0,1-6-4.34c-1-.73-2-1.44-3-2.23a9.2,9.2,0,0,1-2.49-2.87,7.33,7.33,0,0,1-.42-3.77c.11-1.24.28-2.45.31-3.67a22.89,22.89,0,0,0-.4-3.65,17.53,17.53,0,0,1-.18-3.69s0,0,0,0A0,0,0,0,1,140.59,24.91Z" transform="translate(0 0)"/><path class="cls-3" d="M129.39,36.13l0,4.4c0,1.47,0,2.94,0,4.39a28.59,28.59,0,0,0,.53,4.34,9.07,9.07,0,0,0,.64,2,7.45,7.45,0,0,0,1.2,1.75,23.36,23.36,0,0,0,3.36,2.75,20.39,20.39,0,0,0,3.56,2.43c2.49,1.52,5.63.67,8.49,1.5,0,0,0,0,0,0s0,0,0,0a29.1,29.1,0,0,0-4.38-.07,10.72,10.72,0,0,1-2.25-.14,10,10,0,0,1-2.16-.72,17.56,17.56,0,0,1-3.69-2.52,24.77,24.77,0,0,1-3.34-2.93,7.5,7.5,0,0,1-1.24-1.9,9.49,9.49,0,0,1-.63-2.16,27.33,27.33,0,0,1-.43-4.41c0-1.48,0-2.94.08-4.41l.17-4.4a0,0,0,0,1,0,0S129.39,36.11,129.39,36.13Z" transform="translate(0 0)"/><path class="cls-3" d="M121.56,48.77l.22,10.43a13.33,13.33,0,0,0,.92,5,11.11,11.11,0,0,0,3,4.08,14.52,14.52,0,0,0,4.43,2.48,10.66,10.66,0,0,0,2.42.66,15.58,15.58,0,0,0,2.54-.07,10.51,10.51,0,0,1,5.26.57,20.67,20.67,0,0,0,4.86,1.81s0,0,0,0,0,0,0,0a17,17,0,0,1-5-1.42,10.41,10.41,0,0,0-5-.33,14.74,14.74,0,0,1-2.67.1,10.84,10.84,0,0,1-2.6-.73,15.34,15.34,0,0,1-4.56-2.72,11.54,11.54,0,0,1-3-4.32,13.84,13.84,0,0,1-.84-5.2l.06-10.44a0,0,0,0,1,0,0S121.56,48.75,121.56,48.77Z" transform="translate(0 0)"/><path class="cls-3" d="M127.19,80.29c1.19,1.24,2.35,2.51,3.6,3.67a9.62,9.62,0,0,0,2,1.51,5.36,5.36,0,0,0,2.38.51,39.88,39.88,0,0,0,5-.67c1.69-.24,3.37-.6,5.07-.85,0,0,0,0,0,0s0,0,0,0a31.45,31.45,0,0,1-5,1.48,23.42,23.42,0,0,1-5.18.54,6,6,0,0,1-2.58-.67,9.72,9.72,0,0,1-2-1.67c-1.2-1.24-2.29-2.57-3.41-3.87a0,0,0,0,1,0,0A0,0,0,0,1,127.19,80.29Z" transform="translate(0 0)"/><path class="cls-3" d="M137,91.12a7.29,7.29,0,0,0,2.18,1.43c.8.36,1.64.6,2.48,1a4.73,4.73,0,0,0,2.32.72,6.71,6.71,0,0,0,2.4-.77s0,0,0,0a0,0,0,0,1,0,0A4,4,0,0,1,144,95a3.94,3.94,0,0,1-2.64-.92c-.74-.41-1.59-.73-2.37-1.17a7.26,7.26,0,0,1-2.08-1.69s0,0,0,0S136.94,91.11,137,91.12Z" transform="translate(0 0)"/><path class="cls-3" d="M174.49,19c1.35.47,2.69,1,4,1.41a13.38,13.38,0,0,0,4.1.84,7.93,7.93,0,0,0,3.92-1,19.46,19.46,0,0,0,3.35-2.54H190a0,0,0,0,1,0,0,10.47,10.47,0,0,1-3,3.11,7.08,7.08,0,0,1-4.29,1,13.89,13.89,0,0,1-4.21-1.08c-1.34-.53-2.64-1.11-3.95-1.67a0,0,0,0,1,0,0S174.47,19,174.49,19Z" transform="translate(0 0)"/><path class="cls-3" d="M172.89,25.72c1.75.67,3.44,1.51,5.15,2.24a16.36,16.36,0,0,0,5.33,1.4,16.15,16.15,0,0,0,5.41-.66,15.23,15.23,0,0,0,4.73-2.76,0,0,0,0,1,.05,0A11.29,11.29,0,0,1,189,29.37a13.1,13.1,0,0,1-5.69.55,16.83,16.83,0,0,1-5.43-1.64c-1.69-.82-3.32-1.73-5-2.49a0,0,0,0,1,0-.05Z" transform="translate(0 0)"/><path class="cls-3" d="M167.82,33.63A15.62,15.62,0,0,0,171.53,35a14.58,14.58,0,0,1,1.9.63,19.57,19.57,0,0,1,1.75,1c1.14.68,2.25,1.4,3.41,2A24.81,24.81,0,0,0,182.24,40a16.21,16.21,0,0,0,3.81.67,10.82,10.82,0,0,0,3.78-.53c2.52-.67,4.6-2.31,6.63-4h0a0,0,0,0,1,0,.05,22.12,22.12,0,0,1-2.89,2.75,12.87,12.87,0,0,1-3.57,1.89,10.23,10.23,0,0,1-4,.55,16.44,16.44,0,0,1-4-.83,23.82,23.82,0,0,1-3.69-1.55c-1.18-.64-2.27-1.39-3.38-2.1-.56-.34-1.11-.72-1.69-1a12.62,12.62,0,0,0-1.84-.68,15.81,15.81,0,0,1-3.68-1.47s0,0,0,0A0,0,0,0,1,167.82,33.63Z" transform="translate(0 0)"/><path class="cls-3" d="M159.6,42.34a30.31,30.31,0,0,1,4,3.09,8.25,8.25,0,0,0,2.16,1.26,13.22,13.22,0,0,0,2.45.56,20.26,20.26,0,0,1,2.51.5,7.52,7.52,0,0,1,2.3,1.24c1.37,1,2.51,2.4,4,2.9a25.2,25.2,0,0,0,4.92,1,11.89,11.89,0,0,0,2.45,0,9.8,9.8,0,0,0,2.32-.75c.77-.33,1.55-.69,2.36-1a11.14,11.14,0,0,1,2.52-.6,18.65,18.65,0,0,0,4.94-1,0,0,0,0,1,0,0,0,0,0,0,1,0,0,15.81,15.81,0,0,1-4.88,1.46,12.62,12.62,0,0,0-2.39.68c-.77.32-1.52.7-2.3,1.06a10.29,10.29,0,0,1-2.49.84,12,12,0,0,1-2.63-.08,26.06,26.06,0,0,1-5-1.13A6.94,6.94,0,0,1,174.67,51c-.65-.56-1.25-1.15-1.91-1.66a6.78,6.78,0,0,0-2.13-1.22,21,21,0,0,0-2.46-.54,12.77,12.77,0,0,1-2.48-.65,7.94,7.94,0,0,1-2.19-1.35,30.79,30.79,0,0,0-3.94-3.2,0,0,0,1,1,0-.06Z" transform="translate(0 0)"/><path class="cls-3" d="M151.14,51.76c1.38,1.12,2.62,2.39,3.92,3.6a16.09,16.09,0,0,0,2,1.66,13.55,13.55,0,0,0,2.36,1.15c.82.33,1.66.61,2.47,1a25.86,25.86,0,0,1,2.29,1.4,21.63,21.63,0,0,0,4.7,2.32,40.39,40.39,0,0,0,5,1.73,14.49,14.49,0,0,0,2.59.25c.88.05,1.76.1,2.64.13a40.53,40.53,0,0,0,5.28-.13q2.66-.16,5.31-.27a0,0,0,0,1,0,0,0,0,0,0,1,0,0c-1.75.26-3.51.49-5.28.7a36.47,36.47,0,0,1-5.34.34c-.89,0-1.78-.07-2.66-.11a14,14,0,0,1-2.7-.3,41.56,41.56,0,0,1-5-1.87A22.63,22.63,0,0,1,164,61c-.76-.47-1.45-1-2.22-1.43s-1.61-.69-2.43-1a14.55,14.55,0,0,1-2.38-1.24,16.14,16.14,0,0,1-2-1.75c-1.27-1.24-2.47-2.54-3.81-3.7a0,0,0,0,1,0-.05S151.13,51.74,151.14,51.76Z" transform="translate(0 0)"/><path class="cls-3" d="M147.05,63.87a25.56,25.56,0,0,1,2.33,4.38,9.36,9.36,0,0,0,3.2,3.64c.66.48,1.35.93,2,1.41s1.29,1.07,1.94,1.55a9.5,9.5,0,0,0,4.4,1.88,16.93,16.93,0,0,0,4.84-.32l4.91-.69,2.46-.31a17.35,17.35,0,0,1,2.51-.22,34,34,0,0,0,4.95-.1.05.05,0,0,1,0,0s0,0,0,0a25,25,0,0,1-4.94.52,22.31,22.31,0,0,0-2.42.33l-2.46.41c-1.64.25-3.29.5-4.92.69a17.24,17.24,0,0,1-5,.18,10,10,0,0,1-4.59-2.08c-.67-.51-1.25-1.11-1.9-1.58s-1.35-.95-2-1.46a9.65,9.65,0,0,1-3.18-3.82,24.06,24.06,0,0,0-2.2-4.43s0,0,0-.05Z" transform="translate(0 0)"/><path class="cls-3" d="M145.63,77c.72.84,1.4,1.72,2.07,2.61a20.76,20.76,0,0,0,2.11,2.54,15.6,15.6,0,0,0,2.51,2.11,5.69,5.69,0,0,0,3,.88,15.48,15.48,0,0,0,3.2-.56,19.41,19.41,0,0,1,3.33-.52c2.29-.06,4.46.27,6.69.34,0,0,0,0,0,0a0,0,0,0,1,0,0c-2.21.34-4.48.11-6.63.3-1.09.1-2.16.28-3.25.49a14.73,14.73,0,0,1-3.37.44,6.18,6.18,0,0,1-3.25-1,15.92,15.92,0,0,1-2.51-2.25,22.37,22.37,0,0,1-2-2.66q-.93-1.38-2-2.7s0,0,0-.05A0,0,0,0,1,145.63,77Z" transform="translate(0 0)"/><path class="cls-3" d="M145.35,88.26A34.78,34.78,0,0,0,148.56,91a4.91,4.91,0,0,0,3.78,1.13,27.31,27.31,0,0,0,4-1.3,30.39,30.39,0,0,1,4.11-1.11.05.05,0,0,1,.05,0,.05.05,0,0,1,0,0c-1.29.63-2.59,1.15-3.89,1.71a15.92,15.92,0,0,1-4.14,1.19,4.7,4.7,0,0,1-2.2-.28,7.07,7.07,0,0,1-1.87-1.13,34.22,34.22,0,0,1-3-3s0,0,0,0A0,0,0,0,1,145.35,88.26Z" transform="translate(0 0)"/><path class="cls-3" d="M135.68,156.31c3.4.21,6.79.05,10.21.13,1.7.05,3.4.14,5.08.07a22,22,0,0,0,4.94-.86c1.61-.46,3.25-1,4.86-1.51a38.46,38.46,0,0,0,4.69-1.8,44.42,44.42,0,0,0,4.42-2.44c1.45-.88,2.85-1.83,4.23-2.83,0,0,0,0,.06,0a0,0,0,0,1,0,.06,32.53,32.53,0,0,1-3.93,3.28,38.23,38.23,0,0,1-4.38,2.72A28.18,28.18,0,0,1,161,155c-1.66.43-3.26.93-4.94,1.35a22,22,0,0,1-5.1.75c-1.73,0-3.43-.11-5.12-.21-3.38-.19-6.8-.15-10.19-.48,0,0-.05,0,0-.05A0,0,0,0,1,135.68,156.31Z" transform="translate(0 0)"/><path class="cls-4" d="M128,197.67a23.83,23.83,0,0,0,12.07,4.23c2.56,0,3.32-.7,3.32-1.6,0-1.11-1.52-1.52-4.71-1.94-5.62-.76-14.28-1.8-14.28-10.88,0-6,5.27-11.44,15-11.44a26.31,26.31,0,0,1,14.49,4.29l-4.57,8.12a16.53,16.53,0,0,0-9.85-3.47c-1.8,0-3.12.49-3.12,1.46s1,1.38,4.3,1.87c5.62.83,14.7,2,14.7,11.37,0,6.66-6,11.51-15.88,11.51-6.17,0-12.82-2.15-16.43-5.13Z" transform="translate(0 0)"/><path class="cls-4" d="M182.41,206.61c-1.95,2.15-5.62,4.58-11.51,4.58-7.77,0-11.1-4.65-11.1-10.4V176.87h12.48v18.58c0,3.4,1.81,4.71,4.86,4.71a6.57,6.57,0,0,0,5.27-2.63V176.87h12.48v33.49H182.41Z" transform="translate(0 0)"/><path class="cls-4" d="M237,236.3H222l-7.7,11.91v-6h0V206.82a11.86,11.86,0,0,0,9.43,4.37c8.32,0,14.7-6.11,14.7-17.62S232,176,223.72,176a11.77,11.77,0,0,0-9.43,4.36v-3.54H201.81l0,92.92h12.48v-7.56l2.43-3.25,5.76,10.81h15.32L225.5,251.55Zm-22.72-46.94a7.3,7.3,0,0,1,5.14-2.3,6.12,6.12,0,0,1,6.24,6.51c0,4.24-2.92,6.59-6.24,6.59a7.49,7.49,0,0,1-5.14-2.28Z" transform="translate(0 0)"/><path class="cls-4" d="M259,176c9.85,0,17.4,7.07,17.4,18.85v2.57H253.67c.7,2.15,3.12,4.23,7.35,4.23a13.22,13.22,0,0,0,7.56-2.36l5.13,7.7c-3.33,2.84-9.29,4.16-14.28,4.16-10.47,0-18.65-6.59-18.65-17.61C240.78,183.87,248.19,176,259,176Zm-5.48,13.52h11c-.35-1.46-1.53-4-5.55-4A5.22,5.22,0,0,0,253.53,189.56Z" transform="translate(0 0)"/><path class="cls-4" d="M280.71,176.87h12.48v3.81A15,15,0,0,1,303.45,176V188a9.78,9.78,0,0,0-2.84-.34c-2.64,0-6,.69-7.42,2.35v20.39H280.71Z" transform="translate(0 0)"/><path class="cls-4" d="M116.59,250.23a3.45,3.45,0,0,0-3.82-3.75,6.53,6.53,0,0,0-5.13,2.64v20.66H95.16V250.23c0-2-1-3.75-3.81-3.75a6.47,6.47,0,0,0-5.06,2.64v20.66H73.81V236.29H86.29v3.82c1.45-1.88,5.68-4.65,11.09-4.65,4.72,0,8.11,1.73,9.64,5.89a14.44,14.44,0,0,1,11.72-5.89c6.17,0,10.33,3.12,10.33,10v24.27H116.59Z" transform="translate(0 0)"/><path class="cls-4" d="M155.34,266.59c-1.87,2.36-6,4-10.12,4-5,0-11.51-3.39-11.51-11,0-8.32,6.51-10.33,11.51-10.33,4.36,0,8.32,1.39,10.12,3.67v-3.81c0-2.36-2.15-4.16-6.24-4.16a16.08,16.08,0,0,0-9.29,3.26l-4.23-7.7c4.51-3.6,10.75-5.06,15.81-5.06,8.32,0,16.43,2.91,16.43,14.08v20.24H155.34Zm0-7.76c-.83-1.18-3-1.81-4.92-1.81s-4.37.7-4.37,2.78,2.29,2.7,4.37,2.7,4.09-.62,4.92-1.8Z" transform="translate(0 0)"/><path class="cls-4" d="M174.75,236.29h12.48v3.82a15,15,0,0,1,10.26-4.65v11.93a9.77,9.77,0,0,0-2.84-.35c-2.64,0-6,.69-7.42,2.36v20.38H174.75Z" transform="translate(0 0)"/><path class="cls-4" d="M255.65,235.46c9.85,0,17.41,7.07,17.41,18.86v2.57H250.32c.69,2.14,3.12,4.22,7.34,4.22a13.26,13.26,0,0,0,7.56-2.35l5.13,7.69c-3.33,2.85-9.29,4.16-14.28,4.16-10.47,0-18.65-6.58-18.65-17.61C237.42,243.3,244.84,235.46,255.65,235.46ZM250.18,249h11c-.35-1.45-1.52-4-5.55-4A5.2,5.2,0,0,0,250.18,249Z" transform="translate(0 0)"/><path class="cls-4" d="M279.92,260.07v-13h-5.55V236.29h5.55v-9.15H292.4v9.15h6.79v10.82H292.4v9.36a2.87,2.87,0,0,0,2.77,3.12,4.66,4.66,0,0,0,2.5-.62l2.22,9.42c-1.32,1.18-4.23,2.22-8.46,2.22C284,270.61,279.92,267.08,279.92,260.07Z" transform="translate(0 0)"/><path class="cls-3" d="M81.68,330.9l-10.33,1.76-3.42-20.15,10.33-1.76-.48-2.84C75.59,295,84,284,97.77,281.67c6-1,11.33-.6,15,.64l-1.51,16.2a9.64,9.64,0,0,0-5.15-.59c-3.48.6-5.56,3.21-5,6.82l.35,2.07,12.66-2.15,3.41,20.15L104.93,327l7.16,42.23-23.24,3.94Z" transform="translate(0 0)"/><path class="cls-3" d="M123.53,287.09l23.53-1.54.47,7.19c3.63-4.83,11.59-9.55,18.78-10l1.46,22.49a18.29,18.29,0,0,0-5.4-.3c-5,.32-11.28,2-13.69,5.35l2.5,38.43-23.53,1.54Z" transform="translate(0 0)"/><path class="cls-3" d="M272.76,278.17c18.23-3.7,34.89,6.55,39.32,28.38l1,4.75-42.11,8.55c2.09,3.71,7.37,6.65,15.2,5.06,5.26-1.07,10.52-4.14,13.11-7.2L311.63,330c-5.09,6.52-15.64,11.19-24.88,13.07-19.39,3.94-37-5.18-41.16-25.6C242,299.53,252.74,282.23,272.76,278.17Zm-5.06,27.09,20.42-4.14c-1.19-2.57-4.34-6.87-11.79-5.36C269.27,297.19,267.9,302.28,267.7,305.26Z" transform="translate(0 0)"/><path class="cls-3" d="M211.68,289.28c18.46,2.34,30.95,17.38,28.15,39.48l-.61,4.81-42.62-5.4c.79,4.2,4.84,8.67,12.77,9.67,5.33.68,11.29-.55,14.73-2.62l7.79,15.64c-6.92,4.54-18.4,5.59-27.76,4.41-19.63-2.48-33.4-16.77-30.78-37.43C175.65,299.64,191.41,286.72,211.68,289.28Zm-13.47,24,20.67,2.62c-.31-2.81-1.91-7.9-9.45-8.85C202.28,306.18,199.35,310.56,198.21,313.32Z" transform="translate(0 0)"/></g></g></svg>