<svg xmlns="http://www.w3.org/2000/svg" viewBox="0 0 492.94 320.53"><defs><style>.cls-1{fill:#f05160;}.cls-2{fill:#00838a;}.cls-3{fill:#00565a;}</style></defs><title>Asset 9</title><g id="Layer_2" data-name="Layer 2"><g id="Layer_1-2" data-name="Layer 1"><path class="cls-1" d="M492.94,115c0,12.6-2.09,24.36-4,35.53a149.27,149.27,0,0,1-10.18,34,112.08,112.08,0,0,1-19,29.79c-7.85,8.93-16.52,16.57-27.19,22.51-10,5.54-20.28,12.39-32.65,15.09a170.82,170.82,0,0,1-36,3.58c-9.6,0-21.27-2.13-33.42-2.54a285.82,285.82,0,0,1-33.2-3.25c-12.37-1.9-22.92-5.5-31.08-10.35a315.64,315.64,0,0,1-32.66-22.25c-10.5-8.15-23.15-14.53-29.8-26.43-6.23-11.14-8.57-24.94-13.51-37.42-4.84-12.25-8-24.23-8-37.66,0-13.25,1.13-25.07,5.81-35.82,5.27-12.09,11.14-23.51,18.16-32.36,7.45-9.4,17.33-16.88,28-23.17A143.4,143.4,0,0,1,267.48,9.67c11.11-3.18,23.37-4.15,35.89-5.57C315,2.79,327.06,0,339.52,0,350.65,0,362.07,1.85,373,3.84a221.48,221.48,0,0,1,32.54,8.58c10.91,3.78,22,7.28,31.46,12.28,10.63,5.62,17.19,16.22,25.07,22.64,12,9.77,22.77,16,27.14,28.14C492.85,85.5,492.94,98.28,492.94,115Z"/><path class="cls-2" d="M321.56,79c.15-10.89-5-9.57-17.65-9.57-4.73,0-9.35-2.1-13.22-4.24-6.48-3.59-14.33-2.38-10.36-8.07,6.55-9.39,13.78-9.68,20.61-7.53a116.1,116.1,0,0,1,13.43,6.09c6.48,3.28,13.12,6.2,13.53,2.55.36-3.28-3.59-8.06-6.67-12.62s-5.3-8.37-2.82-12.27c5-7.91-1.7-12.58,4.41-22,4-6.21,7.33,2.77,12.27,8.47a17.8,17.8,0,0,1,4,13.83c-1.52,14.38-3.38,26.41.76,24.25,2.18-1.13,2.73-8.36,4.86-14.6,1.91-5.6,5-10.65,9.12-11.67,8.63-2.16,22.19-.69,22.91-4.28s.48,11.16-4.53,17.63A84.34,84.34,0,0,1,362,55c-6.08,5.22-11.74,10-9.6,9.57s9.29-4.36,17.18-5.71c6.23-1.07,13.32-.73,17.76,3.08,10.07,8.63,15.64-7.37,14.42,1.18-1.37,9.58-5.37,13.19-10.41,16.07C389,80.53,380.38,79.06,372,77.6c-9.6-1.66-11.21-9.34-19.25-3.85-7.8,5.32,7.84,3.66,12.89,13.73A97.47,97.47,0,0,1,372,104c2.47,8.88,11,12.58,3.89,17.8-6.95,5.08-5.61-6.08-12.23-12.84-3.88-4-8-8.58-12.22-12.13-6-5-11.72-8.61-14.94-7.87a84.07,84.07,0,0,0-16.47,6.09c-8.06,4-6.64,10.94-15.09,8.63-7.73-2.12-2-6.83,4.43-14.95C312,85.49,315.78,82.38,321.56,79Z"/><path class="cls-2" d="M331.57,74.9c.54,3.77,2.11,4.67,5.7,4.67,1.63,0,4.39-1,6.81-2.07a7,7,0,0,0,3.47-8.68c-.82-3.25-.4-3.35-1.29-6.59-2-4.73,3.14-18-.05-16-3.38,2.19-3.39,2.17-6.77,4.37-4.78,3.11-8,8-8,13.73C331.09,69.63,330.81,69.68,331.57,74.9Z"/><path class="cls-3" d="M331.38,74.92c.55,3.78,2.3,5,5.89,5,1.63,0,4.06-2.08,6.48-3.18,3.15-1.44,4.17-4.51,2.85-7.71-.83-3.26,0-3.46-.85-6.7-1.95-4.73,3.59-18.28.41-16.21-3.38,2.2-3.51,2-6.89,4.19a16.91,16.91,0,0,0-8,14C330.89,69.63,330.63,69.71,331.38,74.92Z"/><path class="cls-1" d="M249.22,162.62c3.26,9.92,4.66,19.71,6,29A123,123,0,0,1,256,221a93.23,93.23,0,0,1-7.22,28.36,84.7,84.7,0,0,1-15.57,24.74c-6.4,6.94-12.75,15-21.79,20.33a140.52,140.52,0,0,1-27.41,12.14c-7.55,2.49-17.29,3.83-27,6.65a236.53,236.53,0,0,1-27,6c-10.22,1.71-19.46,1.61-27.14-.1a263.44,263.44,0,0,1-31.45-9c-10.37-3.7-22-5.44-30.29-13.09-7.79-7.15-13.2-17.41-20.32-25.94s-12.55-17-16-27.57S-.7,223.54.2,213.87c1-10.88,2.69-21.38,5.91-30.17,3.43-9.32,9.27-17.76,16-25.48a118.89,118.89,0,0,1,22.4-20.12c7.91-5.38,17.31-9.31,26.79-13.67,8.78-4,17.58-9.36,27.38-12.59,8.76-2.88,18.23-4.39,27.38-5.66a184.24,184.24,0,0,1,27.82-1.67c9.56.16,19.21,0,27.93,1.51,9.82,1.68,17.73,8.32,25.59,11.33,12,4.59,22.06,6.7,28.64,15.12C241.51,139.42,244.88,149.45,249.22,162.62Z"/><path class="cls-2" d="M105,178.63c-2.71-8.61-6.4-6.24-16.36-3-3.73,1.22-7.91.76-11.51.08-6-1.14-11.89,1.84-10.24-3.66,2.73-9.09,8.34-11.19,14.27-11.26a94.1,94.1,0,0,1,12.14,1.31c6,.9,11.93,1.48,11.31-1.49-.57-2.68-4.91-5.42-8.52-8.21s-6.33-5.22-5.39-8.92c1.91-7.53-4.6-9.47-2.22-18.43,1.57-5.94,6.49.28,11.85,3.48a14.83,14.83,0,0,1,6.74,9.84c2.52,11.71,4.17,21.66,6.87,18.9,1.42-1.46,0-7.3,0-12.76.06-4.89,1.21-9.68,4.16-11.53,6.23-3.94,17.28-6.29,16.92-9.31s3.27,8.66,1,15a70.23,70.23,0,0,1-5.47,10.54c-3.43,5.68-6.65,10.91-5.08,10s6.18-5.84,12-8.94c4.63-2.45,10.3-4,14.78-2.17,10.15,4.18,10.39-9.85,11.64-2.81,1.41,7.9-.81,11.77-4,15.34-1.5,1.66-8.65,2.73-15.64,3.76-8,1.18-11.24-4.45-16.15,1.95-4.76,6.21,7.12.85,13.7,7.47a80.45,80.45,0,0,1,9.34,11.36c4.25,6.34,11.95,7,7.68,13-4.16,5.8-6-3.33-12.95-6.94-4.09-2.12-8.51-4.67-12.76-6.38-6-2.41-11.45-3.73-13.79-2.32A69.8,69.8,0,0,0,108,191.69c-5.3,5.23-2.39,10.32-9.63,10.69-6.63.34-3.37-4.84-.39-12.9C99.21,186.23,101.37,182.8,105,178.63Z"/><path class="cls-2" d="M111.86,172.83c1.4,2.83,2.87,3.14,5.7,2.2a16.94,16.94,0,0,0,4.82-3.39,5.77,5.77,0,0,0,.49-7.73c-1.5-2.34-1.19-2.53-2.73-4.85-2.77-3.21-2.2-15-4.18-12.56s-2.1,2.59-4.19,5.19A13.66,13.66,0,0,0,109,164.57C110.12,168.81,109.91,168.92,111.86,172.83Z"/><path class="cls-3" d="M111.72,172.9c1.4,2.83,3.11,3.37,5.94,2.44,1.28-.42,2.65-2.69,4.27-4.18a4.63,4.63,0,0,0,.25-6.81c-1.5-2.35-.86-2.73-2.4-5-2.76-3.22-1.91-15.31-3.88-12.86-2.09,2.61-2.25,2.48-4.34,5.09a14,14,0,0,0-2.64,13.06C110,168.86,109.78,169,111.72,172.9Z"/></g></g></svg>