<svg xmlns="http://www.w3.org/2000/svg" viewBox="0 0 310.7 255.55"><defs><style>.cls-1{isolation:isolate;}.cls-2{mix-blend-mode:multiply;}.cls-3{fill:#f05160;}.cls-4{fill:#00838a;}.cls-5{fill:#00565a;}</style></defs><title>Asset 6</title><g class="cls-1"><g id="Layer_2" data-name="Layer 2"><g id="Layer_1-2" data-name="Layer 1"><g class="cls-2"><path class="cls-3" d="M310.7,115c0,12.6-2.09,24.36-4,35.53a148.27,148.27,0,0,1-10.18,34,112.3,112.3,0,0,1-19,29.79c-7.85,8.93-16.52,16.57-27.2,22.51-9.95,5.54-20.28,12.39-32.65,15.09a170.68,170.68,0,0,1-36,3.58c-9.6,0-21.27-2.13-33.42-2.54A285.65,285.65,0,0,1,115,249.76c-12.37-1.9-22.92-5.5-31.09-10.35a316.72,316.72,0,0,1-32.66-22.25c-10.49-8.15-23.15-14.53-29.8-26.43-6.22-11.14-8.57-24.94-13.5-37.42-4.85-12.25-8-24.23-8-37.66C0,102.4,1.13,90.58,5.81,79.83,11.07,67.74,17,56.32,24,47.47c7.44-9.4,17.33-16.88,28-23.17A143.29,143.29,0,0,1,85.25,9.67c11.11-3.18,23.36-4.15,35.88-5.57C132.73,2.79,144.82,0,157.28,0c11.13,0,22.56,1.85,33.53,3.84a221.81,221.81,0,0,1,32.54,8.58c10.9,3.78,22,7.28,31.46,12.28,10.62,5.62,17.19,16.22,25.07,22.64,12,9.77,22.77,16,27.13,28.14C310.62,85.5,310.7,98.28,310.7,115Z"/></g><path class="cls-4" d="M139.33,79c.14-10.89-5-9.57-17.65-9.57-4.73,0-9.35-2.1-13.22-4.24C102,61.57,94.13,62.78,98.1,57.09c6.55-9.39,13.78-9.68,20.61-7.53a116.1,116.1,0,0,1,13.43,6.09c6.48,3.28,13.12,6.2,13.52,2.55.37-3.28-3.58-8.06-6.67-12.62s-5.29-8.37-2.81-12.27c5-7.91-1.7-12.58,4.4-22,4-6.21,7.34,2.77,12.27,8.47a17.81,17.81,0,0,1,4,13.83c-1.52,14.38-3.38,26.41.75,24.25,2.19-1.13,2.74-8.36,4.87-14.6,1.91-5.6,5-10.65,9.11-11.67,8.63-2.16,22.19-.69,22.91-4.28S195,38.5,190,45a83.41,83.41,0,0,1-10.24,10c-6.08,5.22-11.75,10-9.61,9.57s9.29-4.36,17.18-5.71c6.24-1.07,13.33-.73,17.77,3.08,10.07,8.63,15.63-7.37,14.41,1.18-1.37,9.58-5.37,13.19-10.4,16.07-2.35,1.34-10.94-.13-19.35-1.59-9.61-1.66-11.21-9.34-19.26-3.85-7.8,5.32,7.84,3.66,12.89,13.73A97.47,97.47,0,0,1,189.8,104c2.48,8.88,11,12.58,3.9,17.8-6.95,5.08-5.62-6.08-12.23-12.84-3.89-4-8-8.58-12.22-12.13-6-5-11.73-8.61-14.94-7.87a84.13,84.13,0,0,0-16.48,6.09c-8.06,4-6.64,10.94-15.09,8.63-7.72-2.12-2-6.83,4.43-14.95C129.77,85.49,133.55,82.38,139.33,79Z"/><path class="cls-4" d="M149.33,74.9c.54,3.77,2.11,4.67,5.71,4.67,1.62,0,4.39-1,6.8-2.07a7,7,0,0,0,3.48-8.68c-.83-3.25-.4-3.35-1.3-6.59-2-4.73,3.15-18,0-16-3.38,2.19-3.39,2.17-6.77,4.37-4.79,3.11-8,8-8,13.73C148.86,69.63,148.58,69.68,149.33,74.9Z"/><path class="cls-5" d="M149.15,74.92c.54,3.78,2.29,5,5.89,5,1.62,0,4.06-2.08,6.48-3.18,3.15-1.44,4.17-4.51,2.84-7.71-.82-3.26,0-3.46-.84-6.7-2-4.73,3.59-18.28.4-16.21-3.38,2.2-3.51,2-6.89,4.19a16.9,16.9,0,0,0-7.95,14C148.65,69.63,148.4,69.71,149.15,74.92Z"/></g></g></g></svg>